<svg id="svgcontent" width="300mm" height="210mm" viewBox="0 0 3000 2100" xmlns="http://www.w3.org/2000/svg" xmlns:svg="http://www.w3.org/2000/svg" data-top="-348" data-left="-1616" data-zoom="0.167" data-en_af="false" data-en_diode="false" data-rotary_mode="false" data-engrave_dpi="medium">

 <g class="layer" data-color="#000000" data-speed="20" data-strength="15" data-repeat="1" data-height="-3" data-zstep="0" data-diode="0">
  <title>預設圖層</title>
  <filter id="filter#000000" filterUnits="objectBoundingBox" primitiveUnits="userSpaceOnUse" color-interpolation-filters="sRGB">
   <feColorMatrix type="matrix" values="1 0 0 0 0, 0 1 0 0 0, 0 0 1 0 0, 0 0 0 1 0"/>
  </filter>
  <g style="cursor: move;" data-original-layer="預設圖層" data-color="rgb(0%,0%,0%)" id="svg_38">
   <path d="m1575.68177,380.51385l54.25983,-101.46399l84.72028,77.86016l-54.25984,101.46754l-84.72027,-77.86371z" stroke-miterlimit="4" stroke="#000000" fill="#000000" id="svg_39" vector-effect="non-scaling-stroke"/>
   <path d="m1816.14382,377.22365l110.86078,30.81572l-57.50331,99.66635l-110.86077,-30.81572l57.5033,-99.66635z" stroke-miterlimit="4" stroke="#000000" fill="#000000" id="svg_40" vector-effect="non-scaling-stroke"/>
   <path d="m1482.36373,576.06639l-88.40791,-73.64661l93.37809,-67.23406l88.40435,73.64662l-93.37453,67.23406l0,-0.00001z" stroke-miterlimit="4" stroke="#000000" fill="#000000" id="svg_41" vector-effect="non-scaling-stroke"/>
   <path d="m1625.15949,703.13768l-104.3736,48.42986l-20.85766,-113.15933l104.37716,-48.42986l20.8541,113.15933z" stroke-miterlimit="4" stroke="#000000" fill="#000000" id="svg_42" vector-effect="non-scaling-stroke"/>
   <path d="m1865.79498,570.65182l23.19174,112.70107l-114.92503,-5.66297l-23.19175,-112.70463l114.92504,5.66653z" stroke-miterlimit="4" stroke="#000000" fill="#000000" id="svg_43" vector-effect="non-scaling-stroke"/>
   <path d="m1634.60953,533.46622c64.2534,-52.81385 64.2534,-53.69136 64.05445,-54.12478c-0.19895,-0.43342 28.36444,157.10928 28.16549,156.67586c-0.19895,-0.43342 -71.09939,33.88172 -71.29833,33.44829c-0.19895,-0.43342 -20.92517,-135.99938 -20.92517,-135.99938l0.00356,0l0,0.00001z" stroke-miterlimit="4" stroke="#000000" fill="#000000" id="svg_44" vector-effect="non-scaling-stroke"/>
   <path d="m1659.00565,683.84676l69.31239,-34.02382l87.12899,470.88378c-42.91613,59.46087 -103.27582,109.73811 -181.07908,150.83174c-12.95655,-35.94937 -32.87276,-91.56982 -59.75219,-166.85779c0,0 130.1446,-52.76766 130.1446,-52.76766c0,0 -15.25157,-122.68757 -45.75471,-368.06269l0,-0.00356z" stroke-miterlimit="4" stroke="#000000" fill="#000000" id="svg_45" vector-effect="non-scaling-stroke"/>
   <path d="m1560.58986,1110.71309l-45.50603,39.91768l70.22188,145.01959c0,0 35.58344,-16.25697 35.58344,-18.54489c0,-2.29146 -60.2993,-166.39238 -60.2993,-166.39238l0.00001,0z" stroke-miterlimit="4" stroke="#000000" fill="#000000" id="svg_46" vector-effect="non-scaling-stroke"/>
   <path d="m1532.04068,906.23974c0,0 136.03491,-38.86611 136.03491,-38.86611c0,0 24.06217,175.82826 24.06572,175.67904c0.00356,-0.09947 -33.3133,11.36497 -99.95054,34.38975c-40.10243,-114.13631 -60.15364,-171.20268 -60.15364,-171.20268l0.00355,0z" stroke-miterlimit="4" stroke="#000000" fill="#000000" id="svg_47" vector-effect="non-scaling-stroke"/>
   <path d="m1482.99266,939.55658l37.02227,-26.98601l59.22639,167.50082c0,0 -20.36384,8.4802 -21.2911,7.55296c-0.92369,-0.9237 -74.95757,-148.06777 -74.95757,-148.06777l0.00001,0z" stroke-miterlimit="4" stroke="#000000" fill="#000000" id="svg_48" vector-effect="non-scaling-stroke"/>
   <path d="m1087.78763,1859.18753c79.30603,-16.22145 93.67654,-21.72452 171.17783,-49.70527c118.95727,-42.40099 168.0124,-77.95247 167.96266,-77.53325c106.29204,-78.88326 164.95711,-158.89272 164.90738,-158.46996c-0.04974,0.41922 96.12788,-136.74543 96.08169,-136.32267c-0.04974,0.41922 78.84774,-140.02455 78.84774,-140.02455c0,0 -103.94728,70.80451 -150.17449,91.32113c-40.87691,19.41884 -93.41365,42.66034 -153.41453,61.1768c-57.75915,14.85012 -96.31616,22.80453 -146.9167,19.84161c-42.5964,-4.27741 -82.26895,-33.16053 -87.61215,-56.94914c-8.2777,-19.55384 -2.04278,-75.01086 21.4403,-111.12721c22.59492,-43.36732 54.2278,-75.24179 87.18939,-104.35584c40.56071,-35.78239 69.70319,-50.63606 100.92752,-65.85211c48.66079,-19.02094 109.58536,-29.41247 110.15023,-29.60076c0.56132,-0.18829 -109.31179,59.36495 -146.4371,147.47447c-14.5517,33.03264 8.73955,61.84826 31.90645,75.57219c67.32646,20.43846 115.72434,5.4711 144.69984,-4.82451c113.63183,-49.72304 184.29069,-116.06541 184.85201,-116.25725c51.17251,-46.49366 79.15681,-94.66063 79.71814,-94.84892c0.56132,-0.18829 106.7077,-29.08919 107.95468,-29.08919c1.25054,0 -36.73806,118.10464 -73.86691,200.82833c-32.81948,70.88267 -132.52133,220.15124 -131.96001,219.96295c-39.28177,55.80518 -64.11131,85.28871 -92.24482,119.86675c-40.27295,48.92368 -117.67121,118.16148 -154.14282,138.72427c-70.49188,46.30893 -100.77475,56.81414 -179.39867,76.71615c-99.22225,18.1008 -121.70348,19.87002 -231.64765,23.47242l0,0.00356l-0.00001,0z" stroke-miterlimit="4" stroke="#000000" fill="#000000" id="svg_49" vector-effect="non-scaling-stroke"/>
   <path d="m1249.16367,1281.73815c-25.18125,30.40011 -44.01035,81.03973 -42.20205,117.7245c-0.52935,41.58744 30.66656,62.02944 58.48389,77.51904c66.9712,21.13477 117.29817,7.84427 169.87044,-4.09266c72.81532,-17.91961 119.64649,-38.32609 176.21194,-65.08828c23.98756,-11.10917 60.6297,-32.05566 109.92641,-62.83591c-48.8171,53.03056 -99.68765,93.10812 -152.60452,120.23268c-56.43756,29.74998 -83.88186,39.78269 -137.62295,54.10702c-60.00798,12.53378 -108.50535,14.11116 -156.246,11.30811c-51.32173,-10.85693 -78.49602,-35.20331 -78.79089,-35.32055c-34.31159,-28.76234 -35.92094,-54.38056 -35.32055,-67.92331c1.49567,-26.9718 19.92687,-63.42564 33.95277,-82.34001c18.50225,-25.18125 38.47176,-49.49921 54.34505,-63.29064l-0.00356,0l0.00002,0.00001z" stroke-miterlimit="4" stroke="#000000" fill="#000000" id="svg_50" vector-effect="non-scaling-stroke"/>
   <path d="m1973.29882,1073.84714l31.91,-12.01865c-25.45481,116.6054 -58.27073,215.94489 -98.44066,298.01489c-101.5599,192.96628 -127.73944,208.27115 -208.68681,301.77716c-112.34222,93.50601 -132.37567,109.84825 -286.81336,169.03912c176.2226,-91.4881 180.30816,-120.34281 243.52065,-174.16206c92.51127,-108.23178 145.5809,-189.02638 181.58711,-249.12318c107.72731,-181.57291 136.92307,-333.52729 136.92307,-333.52729l0,0.00001z" stroke-miterlimit="4" stroke="#000000" fill="#000000" id="svg_51" vector-effect="non-scaling-stroke"/>
   <path d="m2020.92579,1056.18331l24.12256,-11.26193c0,0 -29.92405,204.7327 -89.19308,340.73208c-51.43542,106.37375 -75.96654,153.54952 -149.7162,240.35523c-68.69424,68.28212 -150.87792,125.30587 -270.09099,175.06088c109.80917,-64.75434 171.18849,-112.63354 227.10735,-174.01995c23.92362,-27.7072 99.70185,-122.36427 176.47484,-287.666c44.69602,-111.63524 81.29552,-283.2003 81.29552,-283.2003l0,-0.00001z" stroke-miterlimit="4" stroke="#000000" fill="#000000" id="svg_52" vector-effect="non-scaling-stroke"/>
   <path d="m1946.82796,1470.87822c204.82862,212.06895 307.18431,318.19401 307.06707,318.37519c-0.17763,0.27001 -84.78068,-0.10303 -84.95831,0.16698c-0.17763,0.27 -259.15945,-257.91958 -259.33353,-257.64957c-0.11724,0.18119 12.2922,-20.11871 37.22477,-60.8926z" stroke-miterlimit="4" stroke="#000000" fill="#000000" id="svg_53" vector-effect="non-scaling-stroke"/>
   <path d="m1901.23311,1546.29053l252.17492,242.8705l-48.51868,0.38014l-221.80322,-217.93794l18.14698,-25.30915l0,-0.00356l0,0.00001z" stroke-miterlimit="4" stroke="#000000" fill="#000000" id="svg_54" vector-effect="non-scaling-stroke"/>
  </g>
  <g style="cursor: move;" data-original-layer="預設圖層" vector-effect="non-scaling-stroke" data-ratiofixed="true" id="svg_15">
   <path data-original-layer="預設圖層" vector-effect="non-scaling-stroke" data-ratiofixed="true" d="m457.12869,626.67213l24.65366,0l137.54145,113.32031l5.62276,3.46016l0,-116.34795l0.43252,-0.43252l22.92357,0l0,230.5333l-1.29756,0.43252l-136.67641,-118.51055l-30.70894,-25.08618l0,137.10893l-0.43252,0.43252l-22.05853,0l0,-224.91054zm219.7203,0l144.89429,0l53.19999,39.35934l-2.1626,3.02764l-16.43577,11.24553l-44.11707,-34.60162l-64.013,0l-1.29756,1.29756l0,138.40649q30.96845,14.10016 64.44552,25.5187l51.03739,-25.08618l15.13821,14.27317l-1.29756,2.1626l-108.13007,55.36259l-3.46016,0l-87.80161,-32.0065l0,-198.95932zm221.45038,0l72.66341,0l0,88.66666l1.29756,0.43252l90.82926,-87.36909l2.59512,-1.73008l31.14146,0l-7.78536,8.65041l-78.28617,73.09593l83.90893,128.026l8.65041,15.13821l-28.97886,0l-2.1626,-2.1626l-76.12357,-125.8634l-2.1626,0l-22.92357,22.05853l0,105.96747l-72.66341,0l0,-224.91054zm224.0455,0l21.19349,0l0.43252,0.43252l0,168.68291l2.1626,2.1626l32.87154,10.38049l2.59512,1.73008l12.97561,4.3252l4.3252,0l50.60487,-20.76097l0,-166.95282l76.98861,0l0,200.25688l-1.29756,0.43252l-56.22763,23.35609l-17.30081,6.05528l-129.32356,-44.98211l0,-185.11868z" fill="#000000" id="svg_7"/>
   <path data-original-layer="預設圖層" vector-effect="non-scaling-stroke" data-ratiofixed="true" d="m973.9269,895.70628l62.57074,0l0.41994,0.41994l0,21.41683l17.63739,0l0,-21.83677l63.83055,0l0,21.83677l42.41372,0l1.25981,1.25981l0,17.21745l-42.41372,0l-1.25981,1.25981l0,23.93646l-63.83055,0l0,-25.19627l-16.37758,0l-1.25981,1.25981l0,23.93646l-62.99068,0l0,-23.93646l-1.25981,-1.25981l-41.57385,0l0,-18.47727l42.83366,0l0,-21.83677zm-515.68367,9.23863l211.64867,0l0,128.50098l-131.44054,62.99068l-39.47416,20.15702l-20.99689,9.23863l-20.57695,-12.59814q-0.92386,-2.26766 1.25981,-1.67975l134.80005,-66.77012l0,-74.329l-132.28042,0l-0.41994,-0.41994l0,-19.73708l131.44054,0l1.25981,-1.25981l0,-23.51652l-0.41994,-0.41994l-134.38011,0l-0.41994,-0.41994l0,-19.73708zm263.72096,0l197.37079,0.41994l-17.63739,76.42869l-0.83988,7.55888l-1.67975,4.19938l-14.27789,69.70968l-2.09969,2.93957l-56.27167,20.99689l-99.10533,39.47416l-22.25671,-13.85795l2.93957,-2.09969l36.11465,-14.27789l60.05111,-22.67664l14.27789,-63.83055l-35.27478,0l0,-18.8972l1.25981,-1.25981l39.05422,0l15.11776,-66.35018l-47.45298,0l-0.41994,1.25981l-3.3595,10.07851l-20.99689,86.5072l-2.09969,3.77944l-73.90906,0q-0.83988,0 -0.41994,-3.77944l31.91528,-116.32278zm226.76643,70.54956l192.75147,0l0.41994,0.41994l0,18.05733l-192.75147,0l-0.41994,-0.41994l0,-18.05733zm-17.63739,47.03304l229.706,0l0.41994,0.41994l0,16.79751l-1.25981,1.25981l-111.70347,0l-1.25981,1.25981l-16.79751,51.65235l2.09969,-0.83988l8.39876,0l0.83988,-0.83988l8.39876,0l0.83988,-0.83988l25.61621,-1.67975l-12.59814,-36.95453l66.77012,0l0.41994,1.25981l28.55577,68.02993l-1.25981,1.25981l-68.02993,0l-2.93956,-4.61932l-3.3595,-10.49845l-32.33521,2.51963l-0.83988,0.83988l-7.55888,0l-0.83988,0.83988l-7.55888,0l-0.83988,0.83988l-16.79751,0.83988l-0.83988,0.83988l-7.55888,0l-0.83988,0.83988l-7.55888,0l-0.83988,0.83988l-7.55888,0l-0.83988,0.83988l-7.55888,0l-0.83988,0.83988l-16.79751,0.83988l-0.83988,0.83988l-7.55888,0l-0.83988,0.83988l-8.39876,0l-0.83988,0.83988q-6.29907,-1.25981 -9.23863,0.83988l-2.09969,-5.45919l-0.83988,-14.69782l20.15702,-1.67975l19.31714,-59.21124l-43.67354,-0.41994l0,-18.47727z" fill="#000000" id="svg_13"/>
  </g>
 </g>
</svg>