<svg id="svgcontent" width="300mm" height="210mm" viewBox="0 0 3000 2100" xmlns="http://www.w3.org/2000/svg" xmlns:svg="http://www.w3.org/2000/svg" data-top="-168" data-left="-633" data-zoom="0.237" data-en_af="undefined" data-en_diode="undefined" data-rotary_mode="false" data-engrave_dpi="medium" style="will-change: scroll-position, contents, transform; shape-rendering: optimizespeed;">

 <g data-diode="0" data-zstep="0" data-height="-3" data-repeat="1" data-strength="15" data-speed="20" data-color="#333333" class="layer">
  <title>預設圖層</title>
  <filter color-interpolation-filters="sRGB" primitiveUnits="userSpaceOnUse" filterUnits="objectBoundingBox" id="filter#333333">
   <feColorMatrix values="1 0 0 0 0.2, 0 1 0 0 0.2, 0 0 1 0 0.2, 0 0 0 1 0" type="matrix"/>
  </filter>
  <path stroke="#333333" vector-effect="non-scaling-stroke" data-original-layer="預設圖層" data-nodeTypes="{&quot;0&quot;:0,&quot;1&quot;:0,&quot;2&quot;:0,&quot;3&quot;:0,&quot;4&quot;:0,&quot;5&quot;:0,&quot;6&quot;:0,&quot;7&quot;:0,&quot;8&quot;:0,&quot;9&quot;:0,&quot;10&quot;:0,&quot;11&quot;:0,&quot;12&quot;:0,&quot;13&quot;:0,&quot;14&quot;:0,&quot;15&quot;:0,&quot;16&quot;:0,&quot;17&quot;:0,&quot;18&quot;:0,&quot;19&quot;:0,&quot;20&quot;:0,&quot;21&quot;:0,&quot;22&quot;:0,&quot;23&quot;:0,&quot;24&quot;:0,&quot;25&quot;:0,&quot;26&quot;:0,&quot;27&quot;:0,&quot;28&quot;:0,&quot;29&quot;:0,&quot;30&quot;:0,&quot;31&quot;:0,&quot;32&quot;:0,&quot;33&quot;:0,&quot;34&quot;:0,&quot;35&quot;:0,&quot;36&quot;:0,&quot;37&quot;:0,&quot;38&quot;:0,&quot;39&quot;:0,&quot;40&quot;:0,&quot;41&quot;:0,&quot;42&quot;:0,&quot;43&quot;:0,&quot;44&quot;:0,&quot;45&quot;:0,&quot;46&quot;:0,&quot;47&quot;:0,&quot;48&quot;:0,&quot;49&quot;:0,&quot;50&quot;:0,&quot;51&quot;:0,&quot;52&quot;:0,&quot;53&quot;:0,&quot;54&quot;:0,&quot;55&quot;:0,&quot;56&quot;:0,&quot;57&quot;:0,&quot;58&quot;:0,&quot;59&quot;:0,&quot;60&quot;:0,&quot;61&quot;:0,&quot;62&quot;:0,&quot;63&quot;:0,&quot;64&quot;:0,&quot;65&quot;:0,&quot;66&quot;:0,&quot;67&quot;:0,&quot;68&quot;:0,&quot;69&quot;:0,&quot;70&quot;:0,&quot;71&quot;:0,&quot;72&quot;:0,&quot;73&quot;:0,&quot;74&quot;:0,&quot;75&quot;:0,&quot;76&quot;:0,&quot;77&quot;:0,&quot;78&quot;:0,&quot;79&quot;:0,&quot;80&quot;:0,&quot;81&quot;:0,&quot;82&quot;:0,&quot;83&quot;:0,&quot;84&quot;:0,&quot;85&quot;:0,&quot;86&quot;:0,&quot;87&quot;:0,&quot;88&quot;:0,&quot;89&quot;:0,&quot;90&quot;:0,&quot;91&quot;:0,&quot;92&quot;:0,&quot;93&quot;:0,&quot;94&quot;:0,&quot;95&quot;:0,&quot;96&quot;:0,&quot;97&quot;:0,&quot;98&quot;:0,&quot;99&quot;:0,&quot;100&quot;:0,&quot;101&quot;:0,&quot;102&quot;:0,&quot;103&quot;:0,&quot;104&quot;:0,&quot;105&quot;:0,&quot;106&quot;:0,&quot;107&quot;:0,&quot;108&quot;:0,&quot;109&quot;:0,&quot;110&quot;:0,&quot;111&quot;:0,&quot;112&quot;:0,&quot;113&quot;:0,&quot;114&quot;:0,&quot;115&quot;:0,&quot;116&quot;:0,&quot;117&quot;:0,&quot;118&quot;:0,&quot;119&quot;:0,&quot;120&quot;:0,&quot;121&quot;:0,&quot;122&quot;:0,&quot;123&quot;:0,&quot;124&quot;:0,&quot;125&quot;:0,&quot;126&quot;:0,&quot;127&quot;:0,&quot;128&quot;:0,&quot;129&quot;:0,&quot;130&quot;:0,&quot;131&quot;:0,&quot;132&quot;:0,&quot;133&quot;:0,&quot;134&quot;:0,&quot;135&quot;:0,&quot;136&quot;:0,&quot;137&quot;:0,&quot;138&quot;:0,&quot;139&quot;:0,&quot;140&quot;:0,&quot;141&quot;:0,&quot;142&quot;:0,&quot;143&quot;:0,&quot;144&quot;:0,&quot;145&quot;:0,&quot;146&quot;:0,&quot;147&quot;:0,&quot;148&quot;:0,&quot;149&quot;:0,&quot;150&quot;:0,&quot;151&quot;:0,&quot;152&quot;:0,&quot;153&quot;:0,&quot;154&quot;:0,&quot;155&quot;:0,&quot;156&quot;:0,&quot;157&quot;:0,&quot;158&quot;:0,&quot;159&quot;:0,&quot;160&quot;:0,&quot;161&quot;:0,&quot;162&quot;:0,&quot;163&quot;:0,&quot;164&quot;:0,&quot;165&quot;:0,&quot;166&quot;:0,&quot;167&quot;:0,&quot;168&quot;:0,&quot;169&quot;:0,&quot;170&quot;:0,&quot;171&quot;:0,&quot;172&quot;:0,&quot;173&quot;:0,&quot;174&quot;:0,&quot;175&quot;:0,&quot;176&quot;:0,&quot;177&quot;:0,&quot;178&quot;:0,&quot;179&quot;:0,&quot;180&quot;:0}" data-segInfo="{&quot;15&quot;:0,&quot;114&quot;:0,&quot;137&quot;:0}" d="m2155.04032,1724.03179l68.21107,0l0,23.21549l1.42106,1.42136l16.10539,0l1.42106,-1.42136l0,-23.21549l67.73738,0l1.42106,1.42136l0,21.79413l1.42106,1.42136l44.52667,0l1.42106,1.42136l0,1.89514l-0.94738,2.84271q2.08423,1.23184 0.94738,5.68543l0,1.89514l-0.94738,6.15921l-46.42142,0l0,26.0582l-0.47369,0.47379l-68.68476,0l0,-26.53199l-18.94752,0l0,26.53199l-68.21107,0l0,-25.11063l-1.42106,-1.42136l-45.00036,0l0,-19.89899l45.00036,0l1.42106,-1.42136l0,-23.21549zm-1501.59095,7.58057l26.05284,0l149.68541,123.18422l0.47369,-123.18422l24.15809,0l0.47369,0.47379l0,241.63059l-1.42106,1.42136l-5.68426,-5.68543l-169.5803,-145.92592l-0.47369,144.03078l-23.21071,0l-0.47369,-0.47379l0,-235.47138zm231.63343,0l151.58016,0l56.36887,42.16691l-17.52646,12.79221l-3.7895,0.94757l-45.47405,-36.0077l-66.31632,0l-2.36844,2.36893l0,144.03078l2.36844,2.36893l45.47405,18.00385l18.00014,6.633l2.84213,0l44.52667,-22.7417l8.52638,-2.84271l16.57908,15.63492l-117.94831,60.17075l-93.31654,-34.11255l-0.94738,-2.36893l0,-205.62289l1.42106,-1.42136zm231.63343,0l76.73746,0l0,93.33574l1.42106,0.47379l97.57973,-93.80952l33.15816,0l-11.36851,12.31842l-78.15852,72.48918l1.89475,5.68543l94.7376,144.97835l-32.21078,0.47379l-81.94802,-134.55507l-25.10546,23.21549l0,111.33958l-76.73746,0l0,-235.94516zm235.89662,0l22.26334,0l0.47369,0.47379l0,178.14333l1.42106,0.47379l54.94781,18.95142l54.47412,-22.7417l0,-175.30062l81.47434,0l0,209.88696l-2.36844,2.36893l-73.89533,29.3747l-3.7895,0l-120.31675,-41.69312l-14.68433,-6.15921l0,-193.77826zm243.47563,2.84271l229.26499,0l0,137.87157l-4.26319,3.3165l-64.42157,30.32227l-114.6325,56.85426l-21.78965,10.42328l-2.84213,0l-22.26334,-13.26599q-1.04211,-2.55844 1.42106,-1.89514l146.36959,-72.48918l0,-80.06974l-143.52746,0l-0.47369,-0.47379l0,-20.84656l1.42106,-1.42136l142.58009,0l0,-26.0582l-0.47369,-0.47379l-144.94853,0l-1.42106,-1.42136l0,-20.37278zm286.58124,0l212.68591,0.47379l-18.94752,83.38624l-10.42114,52.1164l-1.89475,4.73785l-4.73688,26.53199l-3.31582,7.10678l-169.5803,65.38239l-22.26334,-14.68735q-0.7579,-2.46368 2.36844,-1.42136l60.63206,-24.63684l38.84242,-14.21356l5.21057,-3.3165l15.15802,-67.75132l-37.89504,0l0,-21.79413l42.15823,0l1.42106,-1.42136l16.10539,-70.59403l-51.63199,0l-0.47369,2.36893l-27.4739,107.5493l-81.00065,0l-0.47369,-3.3165l14.21064,-48.32612l19.8949,-76.75325l1.42106,-1.42136zm244.89669,76.75325l208.89641,0l0.47369,0.47379l0,18.00385l-1.42106,1.42136l-206.52797,0l-1.42106,-1.42136l0,-18.47763zm-18.94752,50.22126l248.6862,0l0.47369,0.47379l0,18.00385l-1.42106,1.42136l-121.26413,0l-1.42106,1.42136l-18.00014,55.90669l1.42106,-0.47379l9.47376,0l0.94738,-0.94757l9.47376,0l0.94738,-0.94757l9.47376,0l0.94738,-0.94757l17.52646,-0.94757l-14.21064,-39.32419l72.94795,-0.47379l26.52653,63.01347l3.7895,9.47571l0,3.3165l-75.31639,0l-0.47369,-2.36893l-6.15794,-13.73978l-157.26442,15.16113l-1.42106,-1.42136l-1.89475,-19.4252l2.36844,-0.94757l18.94752,-0.94757l1.42106,-1.42136l19.8949,-63.96104l-46.42142,0l0,-19.89899z" fill="#333333" id="svg_3"/>
 </g>
 <g data-diode="0" data-zstep="0" data-height="-3" data-repeat="1" data-strength="15" data-speed="50" data-color="#000000" class="layer">
  <title>#000000</title>
  <filter color-interpolation-filters="sRGB" primitiveUnits="userSpaceOnUse" filterUnits="objectBoundingBox" id="filter#000000">
   <feColorMatrix values="1 0 0 0 0, 0 1 0 0 0, 0 0 1 0 0, 0 0 0 1 0" type="matrix"/>
  </filter>
  <g vector-effect="non-scaling-stroke" id="svg_38" style="cursor: move;" data-color="rgb(0%,0%,0%)">
   <path vector-effect="non-scaling-stroke" id="svg_39" fill="#000000" stroke="#000000" stroke-miterlimit="4" d="m1415.03403,169.13525l54.25983,-101.46399l84.72028,77.86016l-54.25984,101.46754l-84.72027,-77.86371z"/>
   <path vector-effect="non-scaling-stroke" id="svg_40" fill="#000000" stroke="#000000" stroke-miterlimit="4" d="m1655.49608,165.84505l110.86078,30.81572l-57.50331,99.66635l-110.86077,-30.81572l57.5033,-99.66635z"/>
   <path vector-effect="non-scaling-stroke" id="svg_41" fill="#000000" stroke="#000000" stroke-miterlimit="4" d="m1321.71599,364.68779l-88.40791,-73.64661l93.37809,-67.23406l88.40435,73.64662l-93.37453,67.23406z"/>
   <path vector-effect="non-scaling-stroke" id="svg_42" fill="#000000" stroke="#000000" stroke-miterlimit="4" d="m1464.51175,491.75908l-104.3736,48.42986l-20.85766,-113.15933l104.37716,-48.42986l20.8541,113.15933z"/>
   <path vector-effect="non-scaling-stroke" id="svg_43" fill="#000000" stroke="#000000" stroke-miterlimit="4" d="m1705.14724,359.27322l23.19174,112.70107l-114.92503,-5.66297l-23.19175,-112.70463l114.92504,5.66653z"/>
   <path vector-effect="non-scaling-stroke" id="svg_44" fill="#000000" stroke="#000000" stroke-miterlimit="4" d="m1473.96179,322.08762c64.2534,-52.81385 64.2534,-53.69136 64.05445,-54.12478c-0.19895,-0.43342 28.36444,157.10928 28.16549,156.67586c-0.19895,-0.43342 -71.09939,33.88172 -71.29833,33.44829c-0.19895,-0.43342 -20.92517,-135.99938 -20.92517,-135.99938l0.00356,0z"/>
   <path vector-effect="non-scaling-stroke" id="svg_45" fill="#000000" stroke="#000000" stroke-miterlimit="4" d="m1498.35791,472.46816l69.31239,-34.02382l87.12899,470.88378c-42.91613,59.46087 -103.27582,109.73811 -181.07908,150.83174c-12.95655,-35.94937 -32.87276,-91.56982 -59.75219,-166.85779c0,0 130.1446,-52.76766 130.1446,-52.76766c0,0 -15.25157,-122.68757 -45.75471,-368.06269l0,-0.00356z"/>
   <path vector-effect="non-scaling-stroke" id="svg_46" fill="#000000" stroke="#000000" stroke-miterlimit="4" d="m1399.94212,899.33449l-45.50603,39.91768l70.22188,145.01959c0,0 35.58344,-16.25697 35.58344,-18.54489c0,-2.29146 -60.2993,-166.39238 -60.2993,-166.39238z"/>
   <path vector-effect="non-scaling-stroke" id="svg_47" fill="#000000" stroke="#000000" stroke-miterlimit="4" d="m1371.39294,694.86114c0,0 136.03491,-38.86611 136.03491,-38.86611c0,0 24.06217,175.82826 24.06572,175.67904c0.00356,-0.09947 -33.3133,11.36497 -99.95054,34.38975c-40.10243,-114.13631 -60.15364,-171.20268 -60.15364,-171.20268l0.00355,0z"/>
   <path vector-effect="non-scaling-stroke" id="svg_48" fill="#000000" stroke="#000000" stroke-miterlimit="4" d="m1322.34492,728.17798l37.02227,-26.98601l59.22639,167.50082c0,0 -20.36384,8.4802 -21.2911,7.55296c-0.92369,-0.9237 -74.95757,-148.06777 -74.95757,-148.06777z"/>
   <path vector-effect="non-scaling-stroke" id="svg_49" fill="#000000" stroke="#000000" stroke-miterlimit="4" d="m927.13989,1647.80893c79.30603,-16.22145 93.67654,-21.72452 171.17783,-49.70527c118.95727,-42.40099 168.0124,-77.95247 167.96266,-77.53325c106.29204,-78.88326 164.95711,-158.89272 164.90738,-158.46996c-0.04974,0.41922 96.12788,-136.74543 96.08169,-136.32267c-0.04974,0.41922 78.84774,-140.02455 78.84774,-140.02455c0,0 -103.94728,70.80451 -150.17449,91.32113c-40.87691,19.41884 -93.41365,42.66034 -153.41453,61.1768c-57.75915,14.85012 -96.31616,22.80453 -146.9167,19.84161c-42.5964,-4.27741 -82.26895,-33.16053 -87.61215,-56.94914c-8.2777,-19.55384 -2.04278,-75.01086 21.4403,-111.12721c22.59492,-43.36732 54.2278,-75.24179 87.18939,-104.35584c40.56071,-35.78239 69.70319,-50.63606 100.92752,-65.85211c48.66079,-19.02094 109.58536,-29.41247 110.15023,-29.60076c0.56132,-0.18829 -109.31179,59.36495 -146.4371,147.47447c-14.5517,33.03264 8.73955,61.84826 31.90645,75.57219c67.32646,20.43846 115.72434,5.4711 144.69984,-4.82451c113.63183,-49.72304 184.29069,-116.06541 184.85201,-116.25725c51.17251,-46.49366 79.15681,-94.66063 79.71814,-94.84892c0.56132,-0.18829 106.7077,-29.08919 107.95468,-29.08919c1.25054,0 -36.73806,118.10464 -73.86691,200.82833c-32.81948,70.88267 -132.52133,220.15124 -131.96001,219.96295c-39.28177,55.80518 -64.11131,85.28871 -92.24482,119.86675c-40.27295,48.92368 -117.67121,118.16148 -154.14282,138.72427c-70.49188,46.30893 -100.77475,56.81414 -179.39867,76.71615c-99.22225,18.1008 -121.70348,19.87002 -231.64765,23.47242l0,0.00356z"/>
   <path vector-effect="non-scaling-stroke" id="svg_50" fill="#000000" stroke="#000000" stroke-miterlimit="4" d="m1088.51593,1070.35955c-25.18125,30.40011 -44.01035,81.03973 -42.20205,117.7245c-0.52935,41.58744 30.66656,62.02944 58.48389,77.51904c66.9712,21.13477 117.29817,7.84427 169.87044,-4.09266c72.81532,-17.91961 119.64649,-38.32609 176.21194,-65.08828c23.98756,-11.10917 60.6297,-32.05566 109.92641,-62.83591c-48.8171,53.03056 -99.68765,93.10812 -152.60452,120.23268c-56.43756,29.74998 -83.88186,39.78269 -137.62295,54.10702c-60.00798,12.53378 -108.50535,14.11116 -156.246,11.30811c-51.32173,-10.85693 -78.49602,-35.20331 -78.79089,-35.32055c-34.31159,-28.76234 -35.92094,-54.38056 -35.32055,-67.92331c1.49567,-26.9718 19.92687,-63.42564 33.95277,-82.34001c18.50225,-25.18125 38.47176,-49.49921 54.34505,-63.29064l-0.00356,0z"/>
   <path vector-effect="non-scaling-stroke" id="svg_51" fill="#000000" stroke="#000000" stroke-miterlimit="4" d="m1812.65108,862.46854l31.91,-12.01865c-25.45481,116.6054 -58.27073,215.94489 -98.44066,298.01489c-101.5599,192.96628 -127.73944,208.27115 -208.68681,301.77716c-112.34222,93.50601 -132.37567,109.84825 -286.81336,169.03912c176.2226,-91.4881 180.30816,-120.34281 243.52065,-174.16206c92.51127,-108.23178 145.5809,-189.02638 181.58711,-249.12318c107.72731,-181.57291 136.92307,-333.52729 136.92307,-333.52729z"/>
   <path vector-effect="non-scaling-stroke" id="svg_52" fill="#000000" stroke="#000000" stroke-miterlimit="4" d="m1860.27805,844.80471l24.12256,-11.26193c0,0 -29.92405,204.7327 -89.19308,340.73208c-51.43542,106.37375 -75.96654,153.54952 -149.7162,240.35523c-68.69424,68.28212 -150.87792,125.30587 -270.09099,175.06088c109.80917,-64.75434 171.18849,-112.63354 227.10735,-174.01995c23.92362,-27.7072 99.70185,-122.36427 176.47484,-287.666c44.69602,-111.63524 81.29552,-283.2003 81.29552,-283.2003z"/>
   <path vector-effect="non-scaling-stroke" id="svg_53" fill="#000000" stroke="#000000" stroke-miterlimit="4" d="m1786.18022,1259.49962c204.82862,212.06895 307.18431,318.19401 307.06707,318.37519c-0.17763,0.27001 -84.78068,-0.10303 -84.95831,0.16698c-0.17763,0.27 -259.15945,-257.91958 -259.33353,-257.64957c-0.11724,0.18119 12.2922,-20.11871 37.22477,-60.8926z"/>
   <path vector-effect="non-scaling-stroke" id="svg_54" fill="#000000" stroke="#000000" stroke-miterlimit="4" d="m1740.58537,1334.91193l252.17492,242.8705l-48.51868,0.38014l-221.80322,-217.93794l18.14698,-25.30915l0,-0.00356z"/>
  </g>
 </g>
</svg>