<svg id="svgcontent" width="300mm" height="210mm" viewBox="0 0 3000 2100" xmlns="http://www.w3.org/2000/svg" xmlns:svg="http://www.w3.org/2000/svg" data-top="-945" data-left="-1700" data-zoom="0.156" data-en_af="false" data-en_diode="false" data-rotary_mode="false" data-engrave_dpi="medium">

 <g class="layer" data-color="#000000" data-speed="20" data-strength="15" data-repeat="1" data-height="-3" data-zstep="0" data-diode="0">
  <title>預設圖層</title>
  <filter id="filter#000000" filterUnits="objectBoundingBox" primitiveUnits="userSpaceOnUse" color-interpolation-filters="sRGB">
   <feColorMatrix type="matrix" values="1 0 0 0 0, 0 1 0 0 0, 0 0 1 0 0, 0 0 0 1 0"/>
  </filter>
  <g style="cursor: move;" data-original-layer="預設圖層" data-color="rgb(0%,0%,0%)" id="svg_38">
   <path stroke="#000000" d="m1400.33189,182.54479l48.60847,-90.89615l75.89636,69.75075l-48.60848,90.89933l-75.89635,-69.75393z" stroke-miterlimit="4" fill="#000000" id="svg_39" vector-effect="non-scaling-stroke"/>
   <path stroke="#000000" d="m1615.74896,179.59727l99.31423,27.60615l-51.51413,89.28574l-99.31422,-27.60615l51.51413,-89.28574z" stroke-miterlimit="4" fill="#000000" id="svg_40" vector-effect="non-scaling-stroke"/>
   <path stroke="#000000" d="m1316.73326,357.72983l-79.19991,-65.97605l83.65243,-60.23139l79.19672,65.97606l-83.64924,60.23139l0,-0.00001z" stroke-miterlimit="4" fill="#000000" id="svg_41" vector-effect="non-scaling-stroke"/>
   <path stroke="#000000" d="m1444.65633,471.56619l-93.50272,43.38572l-18.68526,-101.37338l93.50591,-43.38572l18.68207,101.37338z" stroke-miterlimit="4" fill="#000000" id="svg_42" vector-effect="non-scaling-stroke"/>
   <path stroke="#000000" d="m1660.22877,352.87921l20.77624,100.96285l-102.95518,-5.07315l-20.77625,-100.96604l102.95519,5.07634z" stroke-miterlimit="4" fill="#000000" id="svg_43" vector-effect="non-scaling-stroke"/>
   <path stroke="#000000" d="m1453.12211,319.56662c57.56118,-47.3131 57.56118,-48.09921 57.38295,-48.48749c-0.17823,-0.38828 25.41018,140.74579 25.23195,140.35751c-0.17823,-0.38828 -63.69413,30.35282 -63.87235,29.96453c-0.17823,-0.38828 -18.74574,-121.83456 -18.74574,-121.83456l0.00319,0l0,0.00001z" stroke-miterlimit="4" fill="#000000" id="svg_44" vector-effect="non-scaling-stroke"/>
   <path stroke="#000000" d="m1474.97729,454.28449l62.09326,-30.48012l78.05419,421.83955c-38.44626,53.26781 -92.51927,98.30849 -162.21905,135.12208c-11.60708,-32.20511 -29.44894,-82.0325 -53.52879,-149.47895c0,0 116.58957,-47.27172 116.58957,-47.27172c0,0 -13.66306,-109.90922 -40.98919,-329.72765l0,-0.00319z" stroke-miterlimit="4" fill="#000000" id="svg_45" vector-effect="non-scaling-stroke"/>
   <path stroke="#000000" d="m1386.81186,836.69117l-40.76641,35.76011l62.90802,129.91528c0,0 31.8773,-14.56375 31.8773,-16.61337c0,-2.0528 -54.01891,-149.06202 -54.01891,-149.06202l0.00001,0z" stroke-miterlimit="4" fill="#000000" id="svg_46" vector-effect="non-scaling-stroke"/>
   <path stroke="#000000" d="m1361.23617,653.51445c0,0 121.86639,-34.81807 121.86639,-34.81807c0,0 21.55601,157.51512 21.55919,157.38144c0.00319,-0.08911 -29.8436,10.18127 -89.54033,30.80793c-35.92562,-102.24861 -53.88842,-153.37131 -53.88842,-153.37131l0.00318,0z" stroke-miterlimit="4" fill="#000000" id="svg_47" vector-effect="non-scaling-stroke"/>
   <path stroke="#000000" d="m1317.29668,683.36122l33.16627,-24.17532l53.05775,150.05501c0,0 -18.24287,7.59696 -19.07356,6.76629c-0.82748,-0.82749 -67.15047,-132.64598 -67.15047,-132.64598l0.00001,0z" stroke-miterlimit="4" fill="#000000" id="svg_48" vector-effect="non-scaling-stroke"/>
   <path stroke="#000000" d="m963.25367,1507.20932c71.04602,-14.53193 83.91979,-19.46183 153.34905,-44.52829c106.56745,-37.98478 150.51331,-69.83344 150.46875,-69.45788c95.22134,-70.66729 147.77624,-142.34348 147.73169,-141.96475c-0.04456,0.37556 86.11582,-122.5029 86.07444,-122.12418c-0.04456,0.37556 70.63547,-125.44049 70.63547,-125.44049c0,0 -93.1208,63.42997 -134.53328,81.80971c-36.61943,17.3963 -83.68428,38.21711 -137.43586,54.80502c-51.74333,13.30343 -86.28449,20.42936 -131.6148,17.77504c-38.15983,-3.8319 -73.70034,-29.70674 -78.48703,-51.01768c-7.41555,-17.51724 -1.83002,-67.19821 19.20722,-99.55291c20.24158,-38.85046 48.57978,-67.40509 78.1083,-93.48681c36.33617,-32.05553 62.44335,-45.36213 90.41556,-58.99338c43.59259,-17.03984 98.17165,-26.34906 98.67769,-26.51774c0.50286,-0.16868 -97.92658,53.18188 -131.18515,132.11448c-13.03609,29.59217 7.82929,55.40654 28.58328,67.70108c60.31417,18.30972 103.67124,4.90127 129.62883,-4.32202c101.79667,-44.54421 165.09616,-103.97678 165.59901,-104.14864c45.84271,-41.65118 70.91235,-84.80139 71.41521,-84.97007c0.50286,-0.16868 95.59371,-26.05945 96.71081,-26.05945c1.12029,0 -32.91166,105.80362 -66.17341,179.91134c-29.40121,63.49999 -118.71876,197.2217 -118.2159,197.05302c-35.19043,49.99287 -57.43389,76.40559 -82.63719,107.3822c-36.07838,43.8281 -105.41533,105.85454 -138.08829,124.27564c-63.1499,41.48569 -90.2787,50.89674 -160.71366,68.72589c-88.8879,16.21554 -109.02763,17.80049 -207.52072,21.02768l0,0.00319l-0.00001,0z" stroke-miterlimit="4" fill="#000000" id="svg_49" vector-effect="non-scaling-stroke"/>
   <path stroke="#000000" d="m1107.82182,989.90335c-22.55853,27.23383 -39.42651,72.59915 -37.80656,105.46307c-0.47422,37.25596 27.47253,55.56885 52.39258,69.44516c59.99591,18.93351 105.08115,7.02726 152.17783,-3.66639c65.23134,-16.05322 107.18488,-34.33429 157.85884,-58.3091c21.48917,-9.95211 54.3149,-28.71695 98.47718,-56.29133c-43.73262,47.50724 -89.30483,83.41058 -136.71021,107.71002c-50.55939,26.65141 -75.14526,35.63918 -123.28903,48.47158c-53.75793,11.22834 -97.20413,12.64143 -139.97242,10.13033c-45.97639,-9.72614 -70.32038,-31.53676 -70.58454,-31.64179c-30.73792,-25.76664 -32.17965,-48.71663 -31.64179,-60.84885c1.33989,-24.16259 17.85142,-56.81963 30.41647,-73.764c16.57517,-22.55853 34.46479,-44.34369 48.68482,-56.69869l-0.00319,0l0.00002,0.00001z" stroke-miterlimit="4" fill="#000000" id="svg_50" vector-effect="non-scaling-stroke"/>
   <path stroke="#000000" d="m1756.5357,803.66494l28.58646,-10.76686c-22.8036,104.46053 -52.20163,193.45346 -88.18771,266.97557c-90.98207,172.86815 -114.43492,186.57897 -186.95133,270.34599c-100.64138,83.76702 -118.58827,98.40716 -256.94072,151.43309c157.86839,-81.95929 161.52842,-107.80868 218.1571,-156.02246c82.87589,-96.95905 130.41813,-169.33861 162.67416,-223.17611c96.50713,-162.66144 122.66204,-298.78923 122.66204,-298.78923l0,0.00001z" stroke-miterlimit="4" fill="#000000" id="svg_51" vector-effect="non-scaling-stroke"/>
   <path stroke="#000000" d="m1799.20215,787.84086l21.61011,-10.08896c0,0 -26.80735,183.40906 -79.9033,305.24362c-46.07824,95.29454 -68.05435,137.55679 -134.12272,215.32137c-61.53949,61.17029 -135.16345,112.25482 -241.96005,156.82766c98.37215,-58.00994 153.3586,-100.90235 203.45331,-155.89515c21.43189,-24.8214 89.31755,-109.61959 158.09435,-257.70456c40.04077,-100.00803 72.8283,-253.70398 72.8283,-253.70398l0,-0.00001z" stroke-miterlimit="4" fill="#000000" id="svg_52" vector-effect="non-scaling-stroke"/>
   <path stroke="#000000" d="m1732.82188,1159.34381c183.49499,189.98121 275.18997,285.05297 275.08494,285.21528c-0.15913,0.24189 -75.95047,-0.0923 -76.1096,0.14959c-0.15913,0.24188 -232.16707,-231.05633 -232.32302,-230.81445c-0.10503,0.16232 11.01192,-18.02327 33.34768,-54.55042z" stroke-miterlimit="4" fill="#000000" id="svg_53" vector-effect="non-scaling-stroke"/>
   <path stroke="#000000" d="m1691.97589,1226.90166l225.91,217.57467l-43.46529,0.34055l-198.70162,-195.23892l16.25691,-22.67311l0,-0.00319l0,0.00001z" stroke-miterlimit="4" fill="#000000" id="svg_54" vector-effect="non-scaling-stroke"/>
  </g>
  <path vector-effect="non-scaling-stroke" data-original-layer="預設圖層" data-ratiofixed="true" d="m1100.69805,1535.7164l22.08589,0l123.21601,101.5176l5.03713,3.09977l0,-104.2299l0.38747,-0.38747l20.536,0l0,206.52244l-1.16242,0.38747l-122.44107,-106.16726l-27.51049,-22.47336l0,122.82854l-0.38747,0.38747l-19.76106,0l0,-201.4853zm196.83564,0l129.80303,0l47.65902,35.25993l-1.93736,2.7123l-14.72393,10.07426l-39.52212,-30.99774l-57.34582,0l-1.16242,1.16242l0,123.99096q27.74298,12.63158 57.73329,22.86083l45.72167,-22.47336l13.56151,12.78657l-1.16242,1.93736l-96.86793,49.59638l-3.09977,0l-78.65676,-28.67291l0,-178.237zm198.38553,0l65.09525,0l0,79.43171l1.16242,0.38747l81.36906,-78.26929l2.32483,-1.54989l27.89797,0l-6.97449,7.74943l-70.13238,65.48272l75.16952,114.69163l7.74943,13.56151l-25.96061,0l-1.93736,-1.93736l-68.19503,-112.75428l-1.93736,0l-20.536,19.76106l0,94.93058l-65.09525,0l0,-201.4853zm200.71036,0l18.98612,0l0.38747,0.38747l0,151.11398l1.93736,1.93736l29.44785,9.29932l2.32483,1.54989l11.62415,3.87472l3.87472,0l45.33419,-18.59864l0,-149.56409l68.96997,0l0,179.39941l-1.16242,0.38747l-50.37133,20.92347l-15.49887,5.4246l-115.85405,-40.29706l0,-165.8379z" fill="#000000" id="svg_7"/>
  <path vector-effect="non-scaling-stroke" data-original-layer="預設圖層" data-ratiofixed="true" d="m1637.15766,1784.23769l56.05377,0l0.3762,0.3762l0,19.18619l15.80039,0l0,-19.56239l57.18237,0l0,19.56239l37.99618,0l1.1286,1.1286l0,15.42419l-37.99618,0l-1.1286,1.1286l0,21.44339l-57.18237,0l0,-22.57199l-14.67179,0l-1.1286,1.1286l0,21.44339l-56.42997,0l0,-21.44339l-1.1286,-1.1286l-37.24378,0l0,-16.55279l38.37238,0l0,-19.56239zm-461.97337,8.2764l189.60471,0l0,115.11714l-117.75054,56.42997l-35.36278,18.05759l-18.80999,8.2764l-18.43379,-11.28599q-0.82764,-2.03148 1.1286,-1.5048l120.76014,-59.81577l0,-66.58737l-118.50294,0l-0.3762,-0.3762l0,-17.68139l117.75054,0l1.1286,-1.1286l0,-21.06719l-0.3762,-0.3762l-120.38394,0l-0.3762,-0.3762l0,-17.68139zm236.25348,0l176.81391,0.3762l-15.80039,68.46837l-0.7524,6.7716l-1.5048,3.762l-12.79079,62.44917l-1.881,2.6334l-50.41078,18.80999l-88.78316,35.36278l-19.93859,-12.41459l2.6334,-1.881l32.35318,-12.79079l53.79657,-20.31479l12.79079,-57.18237l-31.60078,0l0,-16.92899l1.1286,-1.1286l34.98658,0l13.54319,-59.43957l-42.51058,0l-0.3762,1.1286l-3.0096,9.0288l-18.80999,77.49716l-1.881,3.3858l-66.21117,0q-0.7524,0 -0.3762,-3.3858l28.59119,-104.20735zm203.1479,63.20157l172.67571,0l0.3762,0.3762l0,16.17659l-172.67571,0l-0.3762,-0.3762l0,-16.17659zm-15.80039,42.13438l205.7813,0l0.3762,0.3762l0,15.04799l-1.1286,1.1286l-100.06915,0l-1.1286,1.1286l-15.04799,46.27258l1.881,-0.7524l7.524,0l0.7524,-0.7524l7.524,0l0.7524,-0.7524l22.94819,-1.5048l-11.28599,-33.10558l59.81577,0l0.3762,1.1286l25.58159,60.94437l-1.1286,1.1286l-60.94437,0l-2.6334,-4.1382l-3.0096,-9.405l-28.96739,2.2572l-0.7524,0.7524l-6.7716,0l-0.7524,0.7524l-6.7716,0l-0.7524,0.7524l-15.04799,0.7524l-0.7524,0.7524l-6.7716,0l-0.7524,0.7524l-6.7716,0l-0.7524,0.7524l-6.7716,0l-0.7524,0.7524l-6.7716,0l-0.7524,0.7524l-15.04799,0.7524l-0.7524,0.7524l-6.7716,0l-0.7524,0.7524l-7.524,0l-0.7524,0.7524q-5.643,-1.1286 -8.2764,0.7524l-1.881,-4.8906l-0.7524,-13.16699l18.05759,-1.5048l17.30519,-53.04417l-39.12478,-0.3762l0,-16.55279z" fill="#000000" id="svg_13"/>
 </g>
</svg>