<svg id="svgcontent" width="300mm" height="210mm" viewBox="0 0 3000 2100" xmlns="http://www.w3.org/2000/svg" xmlns:svg="http://www.w3.org/2000/svg" data-top="-362" data-left="-1457" data-zoom="0.194" data-en_af="false" data-en_diode="false" data-rotary_mode="false" data-engrave_dpi="medium">

 <g class="layer" data-color="#000000" data-speed="20" data-strength="15" data-repeat="1" data-height="-3" data-zstep="0" data-diode="0">
  <title>預設圖層</title>
  <filter id="filter#000000" filterUnits="objectBoundingBox" primitiveUnits="userSpaceOnUse" color-interpolation-filters="sRGB">
   <feColorMatrix type="matrix" values="1 0 0 0 0, 0 1 0 0 0, 0 0 1 0 0, 0 0 0 1 0"/>
  </filter>
  <g style="cursor: move;" data-original-layer="預設圖層" data-color="rgb(0%,0%,0%)" id="svg_38">
   <path stroke="#000000" d="m1406.99304,356.65125l53.66495,-100.35158l83.79144,77.00653l-53.66496,100.35509l-83.79143,-77.01005z" stroke-miterlimit="4" fill="#000000" id="svg_39" vector-effect="non-scaling-stroke"/>
   <path stroke="#000000" d="m1644.81877,353.39712l109.64535,30.47787l-56.87287,98.57365l-109.64534,-30.47787l56.87286,-98.57365z" stroke-miterlimit="4" fill="#000000" id="svg_40" vector-effect="non-scaling-stroke"/>
   <path stroke="#000000" d="m1314.6981,550.05983l-87.43864,-72.83918l92.35433,-66.49693l87.43512,72.83919l-92.35081,66.49693l0,-0.00001z" stroke-miterlimit="4" fill="#000000" id="svg_41" vector-effect="non-scaling-stroke"/>
   <path stroke="#000000" d="m1455.92831,675.73797l-103.22929,47.8989l-20.62899,-111.9187l103.23281,-47.8989l20.62546,111.9187z" stroke-miterlimit="4" fill="#000000" id="svg_42" vector-effect="non-scaling-stroke"/>
   <path stroke="#000000" d="m1693.92558,544.70462l22.93748,111.46546l-113.66504,-5.60088l-22.93749,-111.46898l113.66505,5.6044z" stroke-miterlimit="4" fill="#000000" id="svg_43" vector-effect="non-scaling-stroke"/>
   <path stroke="#000000" d="m1465.27474,507.92671c63.54895,-52.23482 63.54895,-53.10271 63.35218,-53.53138c-0.19677,-0.42867 28.05346,155.3868 27.8567,154.95813c-0.19677,-0.42867 -70.31989,33.51026 -70.51665,33.08158c-0.19677,-0.42867 -20.69576,-134.50834 -20.69576,-134.50834l0.00352,0l0,0.00001z" stroke-miterlimit="4" fill="#000000" id="svg_44" vector-effect="non-scaling-stroke"/>
   <path stroke="#000000" d="m1489.4034,656.65854l68.55248,-33.6508l86.17375,465.72121c-42.44562,58.80897 -102.14355,108.53499 -179.09381,149.17809c-12.8145,-35.55524 -32.51236,-90.56589 -59.09709,-165.02843c0,0 128.71775,-52.18914 128.71775,-52.18914c0,0 -15.08436,-121.34248 -45.25308,-364.02741l0,-0.00352z" stroke-miterlimit="4" fill="#000000" id="svg_45" vector-effect="non-scaling-stroke"/>
   <path stroke="#000000" d="m1392.06659,1078.84489l-45.00712,39.48004l69.452,143.42966c0,0 35.19332,-16.07874 35.19332,-18.34157c0,-2.26634 -59.6382,-164.56813 -59.6382,-164.56813l0.00001,0z" stroke-miterlimit="4" fill="#000000" id="svg_46" vector-effect="non-scaling-stroke"/>
   <path stroke="#000000" d="m1363.83042,876.6133c0,0 134.54348,-38.44 134.54348,-38.44c0,0 23.79836,173.90055 23.80187,173.75297c0.00352,-0.09838 -32.94807,11.24037 -98.85473,34.01272c-39.66276,-112.88497 -59.49414,-169.32569 -59.49414,-169.32569l0.00351,0z" stroke-miterlimit="4" fill="#000000" id="svg_47" vector-effect="non-scaling-stroke"/>
   <path stroke="#000000" d="m1315.32014,909.56487l36.61637,-26.69015l58.57706,165.66441c0,0 -20.14058,8.38723 -21.05767,7.47015c-0.91356,-0.91357 -74.13577,-146.44442 -74.13577,-146.44442l0.00001,0z" stroke-miterlimit="4" fill="#000000" id="svg_48" vector-effect="non-scaling-stroke"/>
   <path stroke="#000000" d="m924.44797,1819.11338c78.43655,-16.04361 92.64951,-21.48634 169.30111,-49.16032c117.65307,-41.93612 166.17038,-77.09783 166.12119,-76.68321c105.1267,-78.01842 163.14859,-157.15069 163.09941,-156.73256c-0.04919,0.41462 95.07398,-135.24621 95.02829,-134.82809c-0.04919,0.41462 77.98329,-138.48938 77.98329,-138.48938c0,0 -102.80765,70.02824 -148.52804,90.31992c-40.42875,19.20594 -92.3895,42.19263 -151.73256,60.50608c-57.1259,14.68731 -95.26019,22.55451 -145.30597,19.62408c-42.12939,-4.23051 -81.36699,-32.79697 -86.65161,-56.32477c-8.18695,-19.33946 -2.02038,-74.18847 21.20524,-109.90886c22.3472,-42.89186 53.63327,-74.41687 86.23348,-103.21173c40.11602,-35.39009 68.93899,-50.08091 99.82099,-65.13014c48.12729,-18.8124 108.38391,-29.09 108.94259,-29.27623c0.55517,-0.18623 -108.11334,58.7141 -144.83163,145.85762c-14.39216,32.67048 8.64373,61.17018 31.55664,74.74365c66.58832,20.21438 114.45559,5.41112 143.11341,-4.77162c112.38602,-49.1779 182.27021,-114.79292 182.82537,-114.98266c50.61148,-45.98392 78.28897,-93.62281 78.84414,-93.80904c0.55517,-0.18623 105.5378,-28.77027 106.77111,-28.77027c1.23683,0 -36.33528,116.80979 -73.05706,198.62653c-32.45966,70.10554 -131.06842,217.7376 -130.51326,217.55137c-38.8511,55.19336 -63.40842,84.35364 -91.23349,118.55258c-39.83141,48.3873 -116.38111,116.86601 -152.45286,137.20336c-69.71904,45.80122 -99.6699,56.19125 -177.43182,75.87507c-98.13442,17.90235 -120.36918,19.65217 -229.10796,23.21508l0,0.00352l-0.00001,0z" stroke-miterlimit="4" fill="#000000" id="svg_49" vector-effect="non-scaling-stroke"/>
   <path stroke="#000000" d="m1084.05475,1247.99491c-24.90517,30.06682 -43.52784,80.15125 -41.73936,116.43382c-0.52355,41.13149 30.33034,61.34938 57.8427,76.66915c66.23696,20.90306 116.01216,7.75827 168.00805,-4.04779c72.017,-17.72315 118.33474,-37.9059 174.28003,-64.37468c23.72457,-10.98737 59.96498,-31.70422 108.72122,-62.147c-48.28189,52.44916 -98.59472,92.08732 -150.93143,118.9145c-55.8188,29.42381 -82.96222,39.34653 -136.11411,53.51381c-59.35008,12.39636 -107.31574,13.95645 -154.53299,11.18413c-50.75906,-10.7379 -77.63542,-34.81736 -77.92706,-34.93331c-33.93541,-28.447 -35.52712,-53.78435 -34.93331,-67.17863c1.47927,-26.67609 19.7084,-62.73027 33.58053,-81.43727c18.2994,-24.90517 38.04997,-48.95652 53.74923,-62.59675l-0.00352,0l0.00002,0.00001z" stroke-miterlimit="4" fill="#000000" id="svg_50" vector-effect="non-scaling-stroke"/>
   <path stroke="#000000" d="m1800.25079,1042.38313l31.56015,-11.88688c-25.17573,115.32699 -57.63187,213.57736 -97.3614,294.74758c-100.44644,190.85068 -126.33896,205.98775 -206.39886,298.4686c-111.11055,92.48085 -130.92436,108.64392 -283.66886,167.18585c174.29057,-90.48506 178.33134,-119.02342 240.85079,-172.25262c91.49702,-107.04517 143.98481,-186.95398 179.59627,-246.3919c106.54623,-179.58222 135.4219,-329.87064 135.4219,-329.87064l0,0.00001z" stroke-miterlimit="4" fill="#000000" id="svg_51" vector-effect="non-scaling-stroke"/>
   <path stroke="#000000" d="m1847.3556,1024.91296l23.85809,-11.13846c0,0 -29.59598,202.4881 -88.21521,336.99644c-50.8715,105.20751 -75.13368,151.86607 -148.07478,237.72008c-67.94111,67.5335 -149.22376,123.93207 -267.12983,173.14159c108.60527,-64.0444 169.31165,-111.39867 224.61744,-172.11207c23.66133,-27.40343 98.60876,-121.02272 174.54005,-284.51215c44.20599,-110.41132 80.40423,-280.09541 80.40423,-280.09541l0,-0.00001z" stroke-miterlimit="4" fill="#000000" id="svg_52" vector-effect="non-scaling-stroke"/>
   <path stroke="#000000" d="m1774.07015,1435.06133c202.58297,209.74392 303.81647,314.70547 303.70052,314.88466c-0.17568,0.26705 -83.85118,-0.1019 -84.02686,0.16515c-0.17568,0.26704 -256.31814,-255.09186 -256.49031,-254.82481c-0.11595,0.1792 12.15743,-19.89814 36.81665,-60.225z" stroke-miterlimit="4" fill="#000000" id="svg_53" vector-effect="non-scaling-stroke"/>
   <path stroke="#000000" d="m1728.97518,1509.64685l249.41018,240.20777l-47.98674,0.37597l-219.37146,-215.54856l17.94802,-25.03167l0,-0.00352l0,0.00001z" stroke-miterlimit="4" fill="#000000" id="svg_54" vector-effect="non-scaling-stroke"/>
  </g>
  <path vector-effect="non-scaling-stroke" data-original-layer="預設圖層" data-ratiofixed="true" d="m230.63258,869.89551l24.38336,0l136.0335,112.07792l5.56112,3.42223l0,-115.07236l0.42778,-0.42778l22.67225,0l0,228.00584l-1.28333,0.42778l-135.17794,-117.21126l-30.37226,-24.81114l0,135.60572l-0.42778,0.42778l-21.81669,0l0,-222.44472zm217.31138,0l143.30573,0l52.61673,38.92783l-2.13889,2.99445l-16.25558,11.12224l-43.63339,-34.22226l-63.31119,0l-1.28334,1.28333l0,136.88906q30.62893,13.94557 63.73897,25.23892l50.47784,-24.81114l14.97224,14.11668l-1.28333,2.13889l-106.94458,54.75562l-3.42223,0l-86.839,-31.65559l0,-196.77802zm219.02249,0l71.86675,0l0,87.69455l1.28333,0.42778l89.83344,-86.41122l2.56667,-1.71111l30.80004,0l-7.70001,8.55557l-77.42787,72.29453l82.98899,126.62238l8.55557,14.97224l-28.66115,0l-2.13889,-2.13889l-75.28898,-124.48349l-2.13889,0l-22.67225,21.81669l0,104.80568l-71.86675,0l0,-222.44472zm221.58916,0l20.96114,0l0.42778,0.42778l0,166.83354l2.13889,2.13889l32.51115,10.26668l2.56667,1.71111l12.83335,4.27778l4.27778,0l50.05006,-20.53336l0,-165.12242l76.14454,0l0,198.06135l-1.28334,0.42778l-55.61118,23.10003l-17.11113,5.9889l-127.90571,-44.48894l0,-183.08911z" fill="#000000" id="svg_7"/>
  <path data-nodeTypes="{&quot;0&quot;:0,&quot;1&quot;:0,&quot;2&quot;:0,&quot;3&quot;:0,&quot;4&quot;:0,&quot;5&quot;:0,&quot;6&quot;:0,&quot;7&quot;:0,&quot;8&quot;:0,&quot;9&quot;:0,&quot;10&quot;:0,&quot;11&quot;:0,&quot;12&quot;:0,&quot;13&quot;:0,&quot;14&quot;:0,&quot;15&quot;:0,&quot;16&quot;:0,&quot;17&quot;:0,&quot;18&quot;:0,&quot;19&quot;:0,&quot;20&quot;:0,&quot;21&quot;:0,&quot;22&quot;:0,&quot;23&quot;:0,&quot;24&quot;:0,&quot;25&quot;:0,&quot;26&quot;:0,&quot;27&quot;:0,&quot;28&quot;:0,&quot;29&quot;:0,&quot;30&quot;:0,&quot;31&quot;:0,&quot;32&quot;:0,&quot;33&quot;:0,&quot;34&quot;:0,&quot;35&quot;:0,&quot;36&quot;:0,&quot;37&quot;:0,&quot;38&quot;:0,&quot;39&quot;:0,&quot;40&quot;:0,&quot;41&quot;:0,&quot;42&quot;:0,&quot;43&quot;:0,&quot;44&quot;:0,&quot;45&quot;:0,&quot;46&quot;:0,&quot;47&quot;:0,&quot;48&quot;:0,&quot;49&quot;:0,&quot;50&quot;:0,&quot;51&quot;:0,&quot;52&quot;:0,&quot;53&quot;:0,&quot;54&quot;:0,&quot;55&quot;:0,&quot;56&quot;:0,&quot;57&quot;:0,&quot;58&quot;:0,&quot;59&quot;:0,&quot;60&quot;:0,&quot;61&quot;:0,&quot;62&quot;:0,&quot;63&quot;:0,&quot;64&quot;:0,&quot;65&quot;:0,&quot;66&quot;:0,&quot;67&quot;:0,&quot;68&quot;:0,&quot;69&quot;:0,&quot;70&quot;:0,&quot;71&quot;:0,&quot;72&quot;:0,&quot;73&quot;:0,&quot;74&quot;:0,&quot;75&quot;:0,&quot;76&quot;:0,&quot;77&quot;:0,&quot;78&quot;:0,&quot;79&quot;:0,&quot;80&quot;:0,&quot;81&quot;:0,&quot;82&quot;:0,&quot;83&quot;:0,&quot;84&quot;:0,&quot;85&quot;:0,&quot;86&quot;:0,&quot;87&quot;:0,&quot;88&quot;:0,&quot;89&quot;:0,&quot;90&quot;:0,&quot;91&quot;:0,&quot;92&quot;:0,&quot;93&quot;:0,&quot;94&quot;:0,&quot;95&quot;:0,&quot;96&quot;:0,&quot;97&quot;:0,&quot;98&quot;:0,&quot;99&quot;:0,&quot;100&quot;:0,&quot;101&quot;:0,&quot;102&quot;:0,&quot;103&quot;:0,&quot;104&quot;:0,&quot;105&quot;:0,&quot;106&quot;:0,&quot;107&quot;:0,&quot;108&quot;:0,&quot;109&quot;:0,&quot;110&quot;:0,&quot;111&quot;:0,&quot;112&quot;:0,&quot;113&quot;:0,&quot;114&quot;:0,&quot;115&quot;:0,&quot;116&quot;:0,&quot;117&quot;:0,&quot;118&quot;:0,&quot;119&quot;:0,&quot;120&quot;:0,&quot;121&quot;:0,&quot;122&quot;:0,&quot;123&quot;:0,&quot;124&quot;:0,&quot;125&quot;:0}" data-segInfo="{&quot;34&quot;:0,&quot;73&quot;:0,&quot;128&quot;:0}" vector-effect="non-scaling-stroke" data-original-layer="預設圖層" data-ratiofixed="true" d="m2466.29389,870.30577l61.88474,0l0.41533,0.41533l0,21.18202l17.44402,0l0,-21.59736l63.13074,0l0,21.59736l41.94872,0l1.246,1.246l0,17.02869l-41.94872,0l-1.246,1.246l0,23.67403l-63.13074,0l0,-24.92003l-16.19802,0l-1.246,1.246l0,23.67403l-62.30007,0l0,-23.67403l-1.246,-1.246l-41.11805,0l0,-18.27469l42.36405,0l0,-21.59736zm-510.02993,9.13734l209.32825,0l0,127.09215l-129.99949,62.30007l-39.04138,19.93602l-20.76669,9.13734l-20.35136,-12.46001q-0.91373,-2.2428 1.246,-1.66134l133.32216,-66.03808l0,-73.51409l-130.83015,0l-0.41533,-0.41533l0,-19.52069l129.99949,0l1.246,-1.246l0,-23.25869l-0.41533,-0.41533l-132.90682,0l-0.41533,-0.41533l0,-19.52069zm260.82964,0l195.2069,0.41533l-17.44402,75.59076l-0.83067,7.47601l-1.66134,4.15334l-14.12135,68.94541l-2.07667,2.90734l-55.65473,20.76669l-98.01878,39.04138l-22.01269,-13.70602l2.90734,-2.07667l35.71871,-14.12135l59.39274,-22.42803l14.12135,-63.13074l-34.88804,0l0,-18.69002l1.246,-1.246l38.62605,0l14.95202,-65.62274l-46.93272,0l-0.41533,1.246l-3.32267,9.96801l-20.76669,85.55877l-2.07667,3.738l-73.09875,0q-0.83067,0 -0.41533,-3.738l31.56537,-115.04747zm224.28026,69.77608l190.63822,0l0.41533,0.41533l0,17.85935l-190.63822,0l-0.41533,-0.41533l0,-17.85935zm-17.44402,46.51739l227.1876,0l0.41533,0.41533l0,16.61335l-1.246,1.246l-110.4788,0l-1.246,1.246l-16.61335,51.08606l2.07667,-0.83067l8.30668,0l0.83067,-0.83067l8.30668,0l0.83067,-0.83067l25.33536,-1.66134l-12.46001,-36.54938l66.03808,0l0.41533,1.246l28.2427,67.28408l-1.246,1.246l-67.28408,0l-2.90734,-4.56867l-3.32267,-10.38335l-31.9807,2.492l-0.83067,0.83067l-7.47601,0l-0.83067,0.83067l-7.47601,0l-0.83067,0.83067l-16.61335,0.83067l-0.83067,0.83067l-7.47601,0l-0.83067,0.83067l-7.47601,0l-0.83067,0.83067l-7.47601,0l-0.83067,0.83067l-7.47601,0l-0.83067,0.83067l-16.61335,0.83067l-0.83067,0.83067l-7.47601,0l-0.83067,0.83067l-8.30668,0l-0.83067,0.83067q-6.23001,-1.246 -9.13734,0.83067l-2.07667,-5.39934l-0.83067,-14.53668l19.93602,-1.66134l19.10536,-58.56207l-43.19472,-0.41533l0,-18.27469z" fill="#000000" id="svg_13"/>
 </g>
</svg>