<svg id="svgcontent" width="300mm" height="210mm" viewBox="0 0 3000 2100" xmlns="http://www.w3.org/2000/svg" xmlns:svg="http://www.w3.org/2000/svg" data-top="-517" data-left="-794" data-zoom="0.222" data-en_af="undefined" data-en_diode="undefined" data-rotary_mode="false" data-engrave_dpi="medium" style="will-change: scroll-position, contents, transform; shape-rendering: optimizespeed;">

 <g data-diode="0" data-zstep="0" data-height="-3" data-repeat="1" data-strength="15" data-speed="20" data-color="#000000" class="layer">
  <title>預設圖層</title>
  <filter color-interpolation-filters="sRGB" primitiveUnits="userSpaceOnUse" filterUnits="objectBoundingBox" id="filter#000000">
   <feColorMatrix values="1 0 0 0 0, 0 1 0 0 0, 0 0 1 0 0, 0 0 0 1 0" type="matrix"/>
  </filter>
  <g style="cursor: move;" data-original-layer="預設圖層" vector-effect="non-scaling-stroke" data-ratiofixed="true" id="svg_102">
   <g style="cursor: move;" data-original-layer="預設圖層" vector-effect="non-scaling-stroke" data-ratiofixed="true" id="svg_101">
    <g style="cursor: move;" data-original-layer="預設圖層" vector-effect="non-scaling-stroke" id="svg_38" data-color="rgb(0%,0%,0%)">
     <path stroke="#000000" vector-effect="non-scaling-stroke" id="svg_39" fill="#000000" stroke-miterlimit="4" d="m1436.33229,469.19955l37.99882,-71.05646l59.33064,54.52641l-37.99882,71.05895l-59.33064,-54.5289z"/>
     <path stroke="#000000" vector-effect="non-scaling-stroke" id="svg_40" fill="#000000" stroke-miterlimit="4" d="m1604.73078,466.89538l77.63715,21.58062l-40.27027,69.79755l-77.63714,-21.58062l40.27026,-69.79755z"/>
     <path stroke="#000000" vector-effect="non-scaling-stroke" id="svg_41" fill="#000000" stroke-miterlimit="4" d="m1370.98053,606.14737l-61.91313,-51.57562l65.39381,-47.08483l61.91064,51.57562l-65.39132,47.08482z"/>
     <path stroke="#000000" vector-effect="non-scaling-stroke" id="svg_42" fill="#000000" stroke-miterlimit="4" d="m1470.98213,695.13693l-73.0941,33.91602l-14.60687,-79.24685l73.09659,-33.91602l14.60438,79.24685z"/>
     <path stroke="#000000" vector-effect="non-scaling-stroke" id="svg_43" fill="#000000" stroke-miterlimit="4" d="m1639.50209,602.35548l16.24146,78.92592l-80.48339,-3.96584l-16.24146,-78.92842l80.4834,3.96834z"/>
     <path stroke="#000000" vector-effect="non-scaling-stroke" id="svg_44" fill="#000000" stroke-miterlimit="4" d="m1477.60011,576.31395c44.99744,-36.98618 44.99744,-37.60071 44.85811,-37.90424c-0.13933,-0.30353 19.86396,110.02554 19.72463,109.72201c-0.13933,-0.30353 -49.79176,23.72778 -49.93109,23.42424c-0.13933,-0.30353 -14.65415,-95.24201 -14.65415,-95.24201l0.00249,0z"/>
     <path stroke="#000000" vector-effect="non-scaling-stroke" id="svg_45" fill="#000000" stroke-miterlimit="4" d="m1494.68501,681.62727l48.54031,-23.82729l61.01749,329.76563c-30.05469,41.64117 -72.32531,76.85093 -126.81188,105.6293c-9.07363,-25.17578 -23.02119,-64.12746 -41.84518,-116.85254c0,0 91.14184,-36.95383 91.14184,-36.95383c0,0 -10.68086,-85.91959 -32.04258,-257.75877l0,-0.00249z"/>
     <path stroke="#000000" vector-effect="non-scaling-stroke" id="svg_46" fill="#000000" stroke-miterlimit="4" d="m1425.76323,980.56694l-31.86842,27.95484l49.17724,101.55898c0,0 24.91952,-11.38496 24.91952,-12.98721c0,-1.60474 -42.22833,-116.52661 -42.22833,-116.52661z"/>
     <path stroke="#000000" vector-effect="non-scaling-stroke" id="svg_47" fill="#000000" stroke-miterlimit="4" d="m1405.7699,837.37177c0,0 95.2669,-27.21841 95.2669,-27.21841c0,0 16.85103,123.13466 16.85352,123.03016c0.00249,-0.06966 -23.32971,7.95902 -69.99658,24.08356c-28.08422,-79.93104 -42.12632,-119.89532 -42.12632,-119.89532l0.00248,0z"/>
     <path stroke="#000000" vector-effect="non-scaling-stroke" id="svg_48" fill="#000000" stroke-miterlimit="4" d="m1371.42097,860.70396l25.92714,-18.89863l41.47696,117.30286c0,0 -14.26105,5.93879 -14.91041,5.28943c-0.64687,-0.64688 -52.49369,-103.69366 -52.49369,-103.69366z"/>
     <path stroke="#000000" vector-effect="non-scaling-stroke" id="svg_49" fill="#000000" stroke-miterlimit="4" d="m1094.6541,1504.73267c55.53898,-11.36008 65.60282,-15.21394 119.87791,-34.80921c83.30722,-29.69393 117.66112,-54.59106 117.62629,-54.29748c74.43761,-55.2429 115.52147,-111.2745 115.48664,-110.97844c-0.03483,0.29358 67.31952,-95.76449 67.28717,-95.46842c-0.03483,0.29358 55.21803,-98.06089 55.21803,-98.06089c0,0 -72.79554,49.58526 -105.16902,63.9533c-28.6266,13.59925 -65.41871,29.87556 -107.43806,42.84286c-40.44943,10.39972 -67.45138,15.97029 -102.88755,13.89532c-29.83077,-2.99552 -57.61394,-23.22272 -61.35585,-39.88218c-5.79697,-13.69379 -1.43058,-52.53102 15.01491,-77.82373c15.8235,-30.37066 37.97639,-52.69274 61.05979,-73.08166c28.40516,-25.05884 48.81399,-35.46105 70.68076,-46.11703c34.07774,-13.3206 76.74396,-20.59791 77.13954,-20.72977c0.3931,-0.13186 -76.55238,41.574 -102.55168,103.27816c-10.19073,23.13316 6.12041,43.31309 22.34447,52.92412c47.14954,14.3133 81.04316,3.83148 101.33506,-3.37866c79.57775,-34.82165 129.06101,-81.28201 129.45411,-81.41637c35.83673,-32.56007 55.43448,-66.29199 55.82758,-66.42385c0.3931,-0.13186 74.7287,-20.37151 75.60198,-20.37151c0.87577,0 -25.72811,82.71011 -51.72989,140.64252c-22.98388,49.64 -92.8063,154.17459 -92.41319,154.04273c-27.5095,39.08105 -44.89793,59.72872 -64.60017,83.94414c-28.20364,34.26185 -82.40657,82.74992 -107.94809,97.15029c-49.36632,32.4307 -70.57378,39.78763 -125.63507,53.72525c-69.48654,12.67621 -85.23042,13.91522 -162.22566,16.43802l0,0.00249z"/>
     <path stroke="#000000" vector-effect="non-scaling-stroke" id="svg_50" fill="#000000" stroke-miterlimit="4" d="m1207.66769,1100.33786c-17.63474,21.28957 -30.82098,56.75311 -29.55461,82.4439c-0.37071,29.12419 21.47617,43.43997 40.95698,54.28752c46.90074,14.80094 82.14533,5.49344 118.96233,-2.86614c50.99345,-12.54932 83.78989,-26.84023 123.40336,-45.58211c16.79878,-7.77989 42.45971,-22.44897 76.9828,-44.00475c-34.18721,37.13795 -69.81247,65.20474 -106.8708,84.2004c-39.52391,20.83427 -58.74348,27.8603 -96.37902,37.8918c-42.02432,8.77756 -75.98761,9.88222 -109.42097,7.91921c-35.94123,-7.60324 -54.97172,-24.6533 -55.17822,-24.73541c-24.02882,-20.14261 -25.15587,-38.08337 -24.73541,-47.56752c1.04743,-18.88868 13.95503,-44.41775 23.77754,-57.66371c12.95735,-17.63474 26.94224,-34.6649 38.05849,-44.3232l-0.00249,0z"/>
     <path stroke="#000000" vector-effect="non-scaling-stroke" id="svg_51" fill="#000000" stroke-miterlimit="4" d="m1714.78833,954.74926l22.34696,-8.4168c-17.82631,81.66018 -40.8077,151.22883 -68.93919,208.70345c-71.12363,135.13663 -89.45748,145.85481 -146.1459,211.33821c-78.67462,65.4834 -92.70429,76.92806 -200.85888,118.38015c123.41083,-64.07023 126.27199,-84.27753 170.54046,-121.96781c64.78676,-75.79603 101.95207,-132.37747 127.16766,-174.46398c75.44275,-127.15772 95.88889,-233.57321 95.88889,-233.57321z"/>
     <path stroke="#000000" vector-effect="non-scaling-stroke" id="svg_52" fill="#000000" stroke-miterlimit="4" d="m1748.14207,942.37907l16.89332,-7.88687c0,0 -20.95618,143.3768 -62.463,238.61881c-36.02085,74.49483 -53.20029,107.53259 -104.84808,168.32368c-48.10741,47.8188 -105.66164,87.75322 -189.148,122.59726c76.90069,-45.34825 119.88538,-78.87863 159.04604,-121.86828c16.754,-19.40369 69.82242,-85.69319 123.58747,-201.45599c31.30116,-78.17951 56.93224,-198.32861 56.93224,-198.32861z"/>
     <path stroke="#000000" vector-effect="non-scaling-stroke" id="svg_53" fill="#000000" stroke-miterlimit="4" d="m1696.25047,1232.79495c143.44397,148.51446 215.1249,222.83513 215.04279,222.96201c-0.1244,0.18909 -59.37294,-0.07215 -59.49734,0.11694c-0.1244,0.18908 -181.49251,-180.62421 -181.61442,-180.43512c-0.08211,0.12689 8.60838,-14.08938 26.06896,-42.64383z"/>
     <path stroke="#000000" vector-effect="non-scaling-stroke" id="svg_54" fill="#000000" stroke-miterlimit="4" d="m1664.31984,1285.60711l176.60116,170.08516l-33.97822,0.26621l-155.33149,-152.62458l12.70855,-17.7243l0,-0.00249z"/>
    </g>
   </g>
  </g>
  <path vector-effect="non-scaling-stroke" transform="rotate(-22.5 1338.215576171875,202.61801147460966) " data-ratiofixed="true" data-original-layer="預設圖層" d="m1320.84334,102.61803l46.62161,0l0.17727,0.1773l0,14.53901l0.53181,0.53191l9.04069,0l-0.35454,-2.30496l0,-7.80142l-0.35454,-0.35461l0,-4.07801l39.53087,0q0.35454,0 0.17727,1.59574l0.35454,0.35461l0,8.86525l0.35454,0.35461l0,8.86525l0.35454,0.35461l0,8.86525l0.35454,0.35461l0,8.86525l0.35454,0.35461l0,9.21986l0.35454,0.35461l0,8.86525l0.35454,0.35461l0,3.36879l16.13143,0l0.53181,0.53191l0,14.89362l-0.53181,0.53191l-15.24509,0l-0.17727,0.1773l0,4.96454l0.35454,0.35461l0,2.65957l12.9406,0l0.17727,0.53191l-10.99065,29.43262l-1.06361,3.19149l0,1.77305l0.35454,0.35461l0,9.57447l0.35454,0.35461l0,8.51064l0.35454,0.35461l0.35454,15.78014l9.74977,0l0.53181,0.53191l0.35454,4.25532l1.06361,4.60993l0,2.12766l1.41815,6.73759l0,2.12766l1.41815,6.73759l0,2.12766l0.35454,0.35461l1.77268,12.58865l-52.2942,0q-0.35454,0 -0.17727,-1.59574l-0.35454,-0.35461l0,-4.25532l-0.53181,-0.53191l-22.69037,0l-0.17727,-0.88652l1.77268,-5.14184l-15.42236,0l-0.53181,0.53191l0,10.6383l-0.17727,0.1773l-35.9855,0l0,-109.92908l62.04397,0l0,71.80851l0.70907,0.1773l8.15435,-21.4539l0,-2.48227l-0.35454,-0.35461l-0.70907,-21.2766l-0.35454,-0.35461l0,-6.73759l-0.35454,-0.35461l-0.70907,-23.40426l-0.35454,-0.35461l0,-3.5461l-0.53181,-0.53191l-73.03462,0l-0.17727,-0.17731l0,-15.24823l0.53181,-0.53191l9.04069,-0.1773l-4.25444,-25l26.41301,0l0.53181,0.53191l1.41815,14.89362l0.35454,0.35461l0,2.48227l0.35454,0.35461l0,2.48227l0.70907,4.07801l3.89991,0l0,-1.24113l0.70907,-3.19149l0.70907,-9.57447l0.35454,-0.35461l0,-2.83688l0.35454,-0.35461l0,-2.83688l0.35454,-0.35461q-0.24818,-2.83688 0.35454,-4.43262l25.70393,0q0.38999,0.03546 0.17727,1.95035l-0.35454,0.35461l0,2.12766l-3.54537,20.74468l9.21796,0l0,-3.36879l-0.35454,-0.35461l-1.06361,-24.8227l-0.35454,-1.95035l-69.31198,0l-0.17727,-0.1773l0,-15.78014l12.40879,0l0,-15.24823zm20.20861,102.48227l-0.70907,0.70922l0,22.69504l0.70907,0.35461l7.44528,0l0.35454,-0.35461l0,-22.69504l-0.35454,-0.70922l-7.44528,0zm0,39.71631l-0.70907,0.70922l0,26.24113l8.50889,0l0,0l0,-26.24113l-0.35454,-0.70922l-7.44528,0zm80.30263,-137.23404l9.92704,0l0.53181,0.53191l0.35454,0.70922l0.35454,12.76596l0.35454,0.35461l0,5.31915l0.35454,0.35461l0,5.31915l0.35454,0.35461l0,5.31915l0.35454,0.35461l0.70907,16.84397l-10.81338,0l-0.17727,-0.1773l0,-3.19149l-0.35454,-0.35461l0,-5.31915l-0.35454,-0.35461l0,-5.31915l-0.35454,-0.35461l0,-5.67376l-0.35454,-0.35461l0,-5.31915l-0.35454,-0.35461l0,-5.67376l-0.35454,-0.35461l0,-6.02837l-0.35454,-0.35461l0,-6.38298q-0.77998,-0.42553 -0.35454,-2.12766l0.53181,-0.53191zm-178.50937,1.77305l60.09402,0l0.53181,0.53191l0,14.89362l-0.53181,0.53191l-59.91675,0l-0.17727,-0.17731l0,-15.78014zm-5.31805,25.53192l68.60291,0l0.17727,0.1773l0,15.78014l-68.60291,0l-0.17727,-0.1773l0,-15.78014zm5.31805,25.53192l60.09402,0l0.53181,0.53191l0,14.89362l-0.53181,0.53191l-59.91675,0l-0.17727,-0.1773l0,-15.78014zm0,25.88653l60.44856,0l0.17727,0.1773l0,15.24823l-0.53181,0.53191l-60.09402,0l0,-15.95745zm-1.77268,25.53192l63.28485,0l0.53181,0.53191l0,82.62411l-0.53181,0.53191l-24.10851,0l-0.17727,0.1773l0,6.73759l-0.17727,0.1773l-38.8218,0l0,-90.78014zm36.51731,15.60284l-0.70907,0.70922l0,51.06383l0.70907,0.35461l6.7362,0l0,0l0,-51.41844l-0.35454,-0.70922l-6.38167,0z" fill="#000000" id="svg_108"/>
  <path vector-effect="non-scaling-stroke" transform="rotate(22.5 1699.2513427734375,194.50773620605452) " data-ratiofixed="true" data-original-layer="預設圖層" d="m1613.35333,94.50777l172.39693,0l0.54043,0.54054l0,82.88287l-0.54043,0.54054l-172.39693,0l0,-83.96395zm51.52092,16.21621l0,17.65765l0.72057,0.36036l68.81466,0l0,-17.65765l0,-0.36036l-69.53523,0zm0,33.51351l0,18.01801l0.36029,0l69.17494,0l0,-17.65765l0,-0.36036l-69.53523,0zm-61.60893,45.4054l192.57295,0l0.18014,0.18018l0,15.67567l-57.64579,0l0,20.18018l48.81877,0l0.54043,0.54054l0,15.49549l-0.18014,0.18018l-49.17906,0l0,25.04504l0.54043,0.54054l11.88944,1.08108l2.88229,0.72072l13.69087,1.44144l0.36029,0.36036l10.4483,1.08108l2.88229,0.72072l2.522,0l2.88229,0.72072l11.52916,1.08108q0.46837,0.79279 2.16172,0.36036l0.54043,0.54054l-4.32343,16.03603l-8.82701,-0.72072l-0.36029,-0.36036l-7.9263,-0.72072l-0.36029,-0.36036l-10.4483,-1.08108l-2.88229,-0.72072l-2.522,0l-5.40429,-1.08108l-22.69803,-2.52252l-2.88229,-0.72072l-5.40429,-0.36036l-2.88229,-0.72072l-2.522,0l-2.88229,-0.72072l-2.522,0l-2.88229,-0.72072l-2.522,0l-8.28658,-1.44144l-2.88229,0l-0.36029,-0.36036l-14.05116,-1.44144l-2.88229,-0.72072l-2.522,0l-2.88229,-0.72072l-2.522,0l-0.36029,-0.36036l-2.522,0l-0.36029,-0.36036l-10.80858,-1.08108l-0.36029,-0.36036l-2.88229,0l-0.36029,-0.36036l-0.90072,1.98198l-2.88229,14.77477l0,1.8018l-0.90072,2.34234l-53.68264,0q-0.36029,0 -0.18014,-1.62162l1.80143,-6.84685l7.56601,-37.83783l3.24258,-13.33333l2.16172,-12.25225l0.72057,-1.8018l0.72057,-4.68468l0.54043,-0.54054l52.24149,0q0.36029,0 0.18014,1.62162l-7.9263,39.81981l17.29374,2.16216l0,-53.69368l-72.95795,0l-0.18014,-0.18018l0,-15.67567z" fill="#000000" id="svg_117"/>
  <path vector-effect="non-scaling-stroke" transform="rotate(-22.5 1697.215942382811,1901.5745849609373) " data-ratiofixed="true" data-original-layer="預設圖層" d="m1611.31769,1801.57451l172.39696,0l0.54043,0.54054l0,82.88288l-0.54043,0.54054l-172.39696,0l0,-83.96396zm51.52093,16.21622l0,17.65766l0.72057,0.36036l68.81467,0l0,-17.65766l0,-0.36036l-69.53524,0zm0,33.51351l0,18.01802l0.36029,0l69.17495,0l0,-17.65766l0,-0.36036l-69.53524,0zm-61.60894,45.4054l192.57299,0l0.18014,0.18018l0,15.67568l-57.6458,0l0,20.18018l48.81878,0l0.54043,0.54054l0,15.4955l-0.18014,0.18018l-49.17907,0l0,25.04504l0.54043,0.54054l11.88945,1.08108l2.88229,0.72072l13.69088,1.44144l0.36029,0.36036l10.4483,1.08108l2.88229,0.72072l2.522,0l2.88229,0.72072l11.52916,1.08108q0.46837,0.79279 2.16172,0.36036l0.54043,0.54054l-4.32343,16.03604l-8.82701,-0.72072l-0.36029,-0.36036l-7.9263,-0.72072l-0.36029,-0.36036l-10.4483,-1.08108l-2.88229,-0.72072l-2.522,0l-5.40429,-1.08108l-22.69803,-2.52252l-2.88229,-0.72072l-5.40429,-0.36036l-2.88229,-0.72072l-2.522,0l-2.88229,-0.72072l-2.522,0l-2.88229,-0.72072l-2.522,0l-8.28658,-1.44144l-2.88229,0l-0.36029,-0.36036l-14.05116,-1.44144l-2.88229,-0.72072l-2.522,0l-2.88229,-0.72072l-2.522,0l-0.36029,-0.36036l-2.522,0l-0.36029,-0.36036l-10.80859,-1.08108l-0.36029,-0.36036l-2.88229,0l-0.36029,-0.36036l-0.90072,1.98198l-2.88229,14.77477l0,1.8018l-0.90072,2.34234l-53.68265,0q-0.36029,0 -0.18014,-1.62162l1.80143,-6.84685l7.56601,-37.83784l3.24258,-13.33333l2.16172,-12.25225l0.72057,-1.8018l0.72057,-4.68468l0.54043,-0.54054l52.2415,0q0.36029,0 0.18014,1.62162l-7.9263,39.81982l17.29374,2.16216l0,-53.69369l-72.95796,0l-0.18014,-0.18018l0,-15.67568z" fill="#000000" id="svg_119"/>
  <path vector-effect="non-scaling-stroke" transform="rotate(45 1969.2292480468748,394.0133666992186) " data-ratiofixed="true" data-original-layer="預設圖層" d="m1940.38571,294.01337l55.56379,0l0.53086,0.53097l0,88.67258l66.00413,0l0.17695,0.17699l0,15.22124l-0.53086,0.53097l-35.214,0l0,50.97346l35.92182,0l0.88477,0.35398l3.5391,42.1239l-94.84775,0l0,-93.27435l-0.17695,-0.17699l-10.08642,0l-7.07819,23.53983l-2.47737,6.72566l-1.06173,4.60177l-5.66255,16.63717l-2.83128,10.26549l-2.47737,6.72566l-1.41564,5.66372l-4.24691,12.38938l-1.06173,4.60177l-1.59259,3.71681l-60.87244,0l-0.17695,-0.53097l35.74486,-94.33629l-33.09054,0l-0.53086,-0.53097l0,-14.86726l0.53086,-0.53097l65.47326,0l0.53086,-0.53097l0,-88.1416l0.53086,-0.53097zm-63.3498,9.55752l45.30042,0l0.53086,0.53097l1.41564,10.61947l0.35391,0.35398l0.70782,7.43363l0.35391,0.35398l0,2.12389l0.35391,0.35398l0,2.12389l0.35391,0.35398l0,2.12389l0.35391,0.35398l0,2.47788l1.41564,8.14159l0,2.83186l0.70782,2.83186l0,2.47788l0.35391,0.35398l3.18519,24.60177l-46.5391,0l-0.53086,-0.53097l-2.12346,-19.46903l-0.70782,-2.83186l-0.35391,-5.30974l-0.70782,-2.83186l-0.35391,-5.30974l-0.70782,-2.83186l0,-2.47788l-0.70782,-2.83186l0,-2.47788l-0.35391,-0.35398l0,-2.47788l-0.70782,-2.83186l0,-2.47788l-0.35391,-0.35398l0,-2.47788l-1.06173,-6.0177l0,-2.83186l-0.70782,-3.18584l0.53086,-0.53097zm136.96298,0l44.94651,0l0.53086,0.53097l-1.06173,10.61947l-0.70782,2.83186l0,2.47788l-0.35391,0.35398l-0.70782,7.78761l-0.35391,0.35398l-0.70782,7.78761l-0.35391,0.35398l0,2.47788l-0.35391,0.35398l0,2.47788l-0.35391,0.35398l0,2.83186l-0.35391,0.35398l-1.06173,10.97345l-0.35391,0.35398l-0.70782,7.78761l-0.35391,0.35398l-1.06173,9.02655l-46.5391,0l-0.17695,-0.17699l0,-2.83186l0.35391,-0.35398l1.41564,-12.74336l0.35391,-0.35398l0,-2.12389l0.35391,-0.35398l1.41564,-12.0354l0.35391,-0.35398l1.41564,-13.45133l1.06173,-5.30974l0,-2.47788l0.35391,-0.35398l2.12346,-17.16814l0.88477,-0.35398z" fill="#000000" id="svg_121"/>
  <path vector-effect="non-scaling-stroke" transform="rotate(22.5 1353.2219238281245,1892.5025634765625) " data-ratiofixed="true" data-original-layer="預設圖層" d="m1321.6777,1792.50266l63.08862,0l0.17822,0.17825l0,10.69519l0.17822,0.17825l52.0392,0l0.53465,0.53476l0,99.64349l-113.16744,0l-0.53465,0.53476l0,7.48663l0.17822,0.17825l58.45499,0l19.24738,21.39037l4.45541,-14.082l1.42573,-6.06061l0.89108,-1.24777l41.34621,0l0.17822,0.89127l-8.55439,27.45098l-0.71287,3.56506l-1.96038,4.81283l-22.8117,0l-0.17822,0.53476l37.42545,41.71123l0,0.53476l-67.54403,0l-0.53465,-0.53476l-60.59359,-74.68805l-0.71287,0.17825l0,49.55436q0.28515,0.81996 1.60395,0.53476l0.35643,-0.35651l2.1386,0l0.35643,-0.35651l2.1386,0l0.35643,-0.35651l2.1386,0l0.35643,-0.35651l24.77208,-3.20856l0,16.22103l-1.24752,0.17825l-5.34649,1.06952l-5.34649,0.35651l-7.48509,1.42602l-14.61375,1.78253l-4.99006,1.06952l-12.83158,1.42602l-2.49503,0.71301l-7.12866,0.71301l-2.49503,0.71301l-9.62369,1.06952l-7.48509,1.42602l-5.34649,0.35651l-9.98012,1.78253l-5.16828,0.35651l-3.56433,-15.86453l0.53465,-0.53476l12.11872,-1.42602l0.89108,-0.35651l0,-170.23172l0.53465,-0.53476l53.82136,0l0.17822,-0.17825l0,-10.33868l0.53465,-0.53476zm3.02968,27.09447l-0.71287,0.71301l0,25.66845l58.45499,0l0,-26.38146l-57.74213,0zm0,42.42424l-0.71287,0.71301l0,24.95544l58.45499,0l0,-25.66845l-57.74213,0z" fill="#000000" id="svg_123"/>
  <path transform="rotate(45 1077.1176757812507,1703.7178955078123) " data-ratiofixed="true" vector-effect="non-scaling-stroke" data-original-layer="預設圖層" d="m1000.78923,1603.71778l58.59009,0l0.53752,0.53763l11.288,17.74193l11.10882,0l0.89587,-0.89606l10.92965,-17.38351l58.41091,0l0.17917,0.53763l-11.46717,15.77061l-0.7167,1.97133l29.02628,0l0,15.5914l-0.53752,0.53763l-65.04037,0l0,10.57348l0.53752,0.53763l55.90247,0l0.17917,0.17921l0,15.5914l-56.08164,0l-0.53752,0.53763l0,11.82796l0.17917,0.17921l68.26552,0l0,16.12903l-10.21295,0l-0.17917,0.89606l-5.37524,15.05376l0,1.25448l21.1426,0l0,16.12903l-201.21306,0l-0.17917,-0.17921l0,-15.94982l20.78425,-0.17921l-5.01689,-14.69534l-1.25422,-2.32975l-9.1379,0l0,-16.12903l67.54882,0l0.53752,-0.53763l0,-11.46953l-0.53752,-0.53763l-55.18577,0l-0.17917,-0.17921l0,-15.5914l55.0066,0l0.89587,-0.35842l0,-10.57348l-0.17917,-0.17921l-64.1445,0l-0.53752,-0.53763l0,-15.5914l27.77206,0l0.17917,-0.53763l-11.82552,-16.48745l-0.35835,-1.25448zm32.96812,89.96415l5.37524,17.2043l10.75047,0l0,-16.48745l-0.35835,-0.71685l-15.76736,0zm70.23644,0l0,17.2043l10.39213,0l5.73359,-16.84588l-16.12571,-0.35842zm-114.67173,41.57706l174.33687,0l0.53752,0.53763l0,67.38351l-0.53752,0.53763l-51.24393,0l-0.17917,-0.17921l0,-8.96057l-0.17917,-0.17921l-70.59479,0l-0.53752,0.53763l0,8.78136l-51.60228,0l0,-68.45877zm51.60228,16.12903l0,26.52329l0.7167,0.35842l70.59479,0l0,-26.88172l-71.31148,0z" fill="#000000" id="svg_125"/>
  <path vector-effect="non-scaling-stroke" transform="rotate(-45 1982.558471679687,1690.8559570312493) " data-ratiofixed="true" data-original-layer="預設圖層" d="m2031.04695,1590.85587l53.14222,0l0.54043,0.54054l-5.04401,13.33333l-14.41145,42.52253l-0.54043,0.54054l-52.96208,0l-0.18014,-0.54054l3.24258,-8.28829l16.21288,-48.10811zm-143.39393,0.72072l121.41647,0l0,71.53154l-0.54043,0.54054l-32.96619,0l0,8.46847l0.54043,0.54054l37.64991,0l0,16.21622l-130.24348,0l-0.54043,-0.54054l0,-15.67568l39.09106,0l0.18014,-0.18018l0,-8.82883l-34.04705,0l-0.54043,-0.54054l0,-71.53154zm48.27836,16.21622l0,11.17117l0.72057,0.36036l28.46261,0l0.36029,-0.36036l0,-11.17117l-29.54347,0zm0,27.02703l0,12.25225l0.72057,0.36036l28.46261,0l0.36029,-0.36036l0,-12.25225l-29.54347,0zm95.11557,19.81982l53.14222,0l0.18014,1.26126l-21.61718,55.67568l-53.14222,0l-0.18014,-0.9009l21.61718,-56.03604zm-141.23221,41.44144l117.09303,0l0,41.80181l-32.78605,0l0,52.43244l-0.54043,0.54054l-53.86279,0l-4.86386,-18.37838l-0.54043,1.26126l-1.44115,9.90991l-32.24562,0q-0.36029,0 -0.18014,-1.62162l6.12487,-27.02703l1.44115,-8.64865l0.90072,-1.98198l29.54347,0q0.36029,0 0.18014,1.62162l-1.80143,9.72973l0.54043,0.54054l9.1873,0l0,-18.37838l-36.7492,0l0,-41.80181zm48.99893,14.41442l-0.72057,0.72072l0,11.89189l0.72057,0.36036l24.49947,0l0,-12.25225l-0.36029,-0.72072l-24.13918,0zm92.77371,7.56757l52.60179,0l0.54043,0.54054l-25.40018,69.00901l-54.40322,0l-0.18014,-0.9009l1.80143,-4.86487l-21.07675,0l-0.18014,-1.26126l-3.60286,-16.93694l0,-1.8018l-3.24258,-15.4955l0,-1.98198l27.5619,0l0.18014,0.54054l2.16172,7.56757l0,1.44144l3.24258,13.33333l0.54043,0.54054l14.23131,-36.57658l0.72057,-2.88288l3.24258,-8.28829l1.261,-1.98198z" fill="#000000" id="svg_127"/>
  <path vector-effect="non-scaling-stroke" transform="rotate(-45 1071.7885742187498,393.6176757812499) " data-ratiofixed="true" data-original-layer="預設圖層" d="m989.04701,293.61766l49.899,0l0.18145,0.54446l-0.7258,1.45191l-2.90321,12.70418l-1.45161,4.35572l43.00386,0.18149l0.54435,0.54446l0,15.78948l-17.96364,0l-0.54435,0.54446l0,52.81308l19.41525,0l0.18145,0.54446l0.3629,0.36298l0,14.88204l-0.54435,0.54446l-25.22168,0l-2.90321,11.25227l14.69752,0l0.18145,0.54446l4.71772,16.33394l3.26612,13.79311l1.81451,5.44465l1.08871,5.44465l0.7258,1.45191l1.45161,6.89655l5.44353,19.60073l-0.54435,0.54446l-35.56438,0l-0.54435,-0.54446l-0.3629,-3.26679l-1.45161,-5.08167l-0.3629,-3.26679l-0.7258,-1.81488l-3.81047,-18.69329l-0.54435,0.54446l-0.3629,2.54084l-1.45161,3.99274l-9.79835,37.38658l-0.90725,1.63339l-56.61268,0l-0.18145,-1.27042l27.94344,-93.46644l-24.13297,0l-0.54435,-0.54446l0,-15.78948l28.30634,0l0,-13.06715l-31.75391,0l-0.18145,-0.90744l18.87089,-74.95464zm95.98753,4.71869l87.82224,0l0.54435,0.54446l0,193.82944l-0.54435,0.54446l-44.27402,0l-0.18145,-0.18149l0,-15.06352l-9.07255,0l0,15.24501l-34.29422,0l-0.54435,-0.54446l0,-193.82944l0.54435,-0.54446zm34.29422,16.33394l0,147.00548l0.3629,0l8.70964,0l0,-146.6425l0,-0.36298l-9.07255,0z" fill="#000000" id="svg_129"/>
 </g>
</svg>